<svg width="65" height="92" viewBox="0 0 65 92" fill="none" xmlns="http://www.w3.org/2000/svg">
<path d="M59.6523 83.9581H52.5724L48.1775 78.0891C53.3716 75.8458 57.7194 72.0283 60.5998 67.182C63.4801 62.3357 64.7456 56.7086 64.2153 51.1047C63.6851 45.5008 61.3863 40.2069 57.6474 35.9792C53.9085 31.7516 48.9208 28.8067 43.397 27.5651C43.3111 27.3484 43.2132 27.1366 43.1038 26.9306L50.0153 18.7442C50.1662 18.5654 50.2396 18.3343 50.2191 18.1018C50.1986 17.8693 50.086 17.6543 49.9061 17.5043L48.2638 16.1347L52.607 10.9902C52.758 10.8114 52.8313 10.5803 52.8108 10.3478C52.7904 10.1153 52.6778 9.90035 52.4979 9.75032L52.1481 9.45858L54.9497 6.14016C55.1006 5.96129 55.1739 5.73021 55.1534 5.49769C55.1329 5.26518 55.0204 5.05025 54.8406 4.90014L49.2115 0.205827C49.0315 0.0558327 48.799 -0.0169953 48.565 0.00335437C48.3311 0.023704 48.1148 0.135566 47.9638 0.314345L45.1624 3.63258L44.8126 3.34086C44.7236 3.26655 44.6206 3.2104 44.5097 3.17563C44.3988 3.14086 44.2821 3.12814 44.1662 3.13821C44.0503 3.14827 43.9376 3.18092 43.8345 3.23429C43.7313 3.28766 43.6397 3.3607 43.565 3.44925L39.2216 8.59367L37.5793 7.22413C37.4903 7.14982 37.3873 7.09368 37.2764 7.05891C37.1655 7.02414 37.0488 7.01143 36.9329 7.02149C36.8171 7.03156 36.7043 7.06421 36.6012 7.11758C36.498 7.17095 36.4064 7.24399 36.3317 7.33254L15.5142 31.99C14.8451 32.7843 14.4178 33.7517 14.2823 34.7788C14.1468 35.8059 14.3087 36.8501 14.7491 37.7889L14.057 39.1599C13.4178 40.4258 13.5966 41.7835 14.5059 42.5418L19.0304 46.2677C19.4526 46.6143 19.985 46.8005 20.5325 46.7931C21.2294 46.7773 21.9027 46.5395 22.4532 46.1146L23.7085 45.1865C24.6999 45.428 25.7395 45.3888 26.7097 45.0734C27.6798 44.7579 28.5417 44.1788 29.1978 43.4017L35.5248 35.9075C36.7813 36.309 38.1324 36.3121 39.3907 35.9162C40.6491 35.5204 41.7523 34.7453 42.5476 33.6984C46.8476 34.7813 50.6828 37.2109 53.486 40.6278C56.2892 44.0446 57.9115 48.2674 58.1131 52.6716C58.3147 57.0758 57.0848 61.4276 54.6054 65.0833C52.1259 68.739 48.5285 71.5047 44.3452 72.9712L40.4189 67.7276C40.077 67.271 39.6324 66.9002 39.1207 66.6447C38.6089 66.3892 38.0442 66.2562 37.4715 66.2562C36.8988 66.2562 36.3341 66.3892 35.8223 66.6447C35.3106 66.9002 34.866 67.271 34.5241 67.7276L30.5978 72.971C27.756 71.9718 25.1695 70.3649 23.0207 68.2638H29.068C29.9803 68.2628 30.855 67.9022 31.5001 67.261C32.1452 66.6199 32.5081 65.7506 32.5092 64.8438V61.8954C32.5092 61.662 32.4159 61.4381 32.2498 61.2731C32.0837 61.108 31.8585 61.0153 31.6236 61.0153H0.885538C0.650678 61.0153 0.425438 61.108 0.259367 61.2731C0.0932968 61.4381 0 61.662 0 61.8954V64.8438C0.00101372 65.7505 0.363879 66.6199 1.00898 67.261C1.65409 67.9022 2.52875 68.2628 3.44107 68.2638H15.036C17.8956 72.6074 21.9695 76.0261 26.7573 78.1L22.3705 83.9581H15.2906C14.3477 83.9592 13.4437 84.332 12.777 84.9947C12.1103 85.6573 11.7352 86.5558 11.7341 87.4929V90.3266C11.7341 90.5601 11.8274 90.7839 11.9935 90.949C12.1596 91.114 12.3848 91.2068 12.6197 91.2068H62.3232C62.558 91.2068 62.7833 91.114 62.9493 90.949C63.1154 90.7839 63.2087 90.5601 63.2087 90.3266V87.4929C63.2077 86.5558 62.8326 85.6573 62.1659 84.9946C61.4992 84.332 60.5952 83.9592 59.6523 83.9581V83.9581ZM46.5193 4.76405L48.7515 2.11994L53.0237 5.68291L50.7913 8.327L48.6553 6.54556L46.5193 4.76405ZM40.5784 9.72513L44.3525 5.25494L44.702 5.5465L44.7023 5.54683L47.5168 7.89403L50.681 10.533L46.9071 15.0031L46.8599 14.9637L40.5784 9.72513ZM21.396 44.7023C20.9392 45.0403 20.4225 45.1306 20.1669 44.9177L20.1625 44.9141L15.64 41.19C15.3847 40.9769 15.3847 40.4552 15.64 39.9494L15.9136 39.4074C16.0024 39.4922 16.0933 39.5754 16.1889 39.6551L21.4853 44.0722C21.6074 44.174 21.7333 44.2688 21.8614 44.3582L21.396 44.7023ZM27.841 42.2701C27.2753 42.9378 26.4894 43.384 25.6234 43.5293C24.7574 43.6746 23.8676 43.5096 23.1127 43.0636L17.0319 38.03C16.4027 37.3745 16.0385 36.5117 16.0088 35.6063C15.9792 34.7009 16.2861 33.8163 16.871 33.1215L37.1193 9.1382L38.7614 10.5077V10.5078L39.7584 11.3392L48.0891 18.2869L42.0287 25.4653C41.4079 24.8316 40.6603 24.3343 39.8341 24.0055C39.008 23.6767 38.1217 23.5237 37.2323 23.5564C36.343 23.5891 35.4705 23.8068 34.6711 24.1953C33.8716 24.5838 33.163 25.1346 32.591 25.8122C32.019 26.4897 31.5962 27.2789 31.3501 28.1289C31.1039 28.9788 31.0397 29.8706 31.1618 30.7467C31.2838 31.6228 31.5893 32.4638 32.0585 33.2153C32.5278 33.9668 33.1503 34.6122 33.886 35.1098L27.841 42.2701ZM37.4713 34.4507C36.5618 34.4508 35.6728 34.1828 34.9166 33.6806C34.1604 33.1785 33.5711 32.4647 33.223 31.6297C32.875 30.7946 32.7839 29.8757 32.9613 28.9892C33.1388 28.1027 33.5767 27.2884 34.2198 26.6493C34.8628 26.0101 35.6822 25.5749 36.5741 25.3986C37.4661 25.2222 38.3906 25.3127 39.2308 25.6586C40.071 26.0045 40.7892 26.5903 41.2944 27.3419C41.7997 28.0934 42.0693 28.977 42.0693 29.8809C42.0679 31.0924 41.583 32.254 40.721 33.1107C39.859 33.9674 38.6903 34.4493 37.4713 34.4507V34.4507ZM59.9057 53.606C59.8993 48.7263 58.2853 43.9829 55.3104 40.101C52.3354 36.2191 48.1632 33.4122 43.4317 32.1096C43.7023 31.3973 43.8408 30.6422 43.8404 29.8809C43.8404 29.7473 43.8348 29.615 43.8265 29.4835C48.9085 30.8055 53.4446 33.6795 56.7955 37.7004C60.1463 41.7213 62.1427 46.686 62.5031 51.8947C62.8636 57.1033 61.5699 62.293 58.8046 66.7319C56.0392 71.1709 51.9417 74.6352 47.0897 76.6363L45.4488 74.4448C49.697 72.833 53.3533 69.9782 55.9345 66.2575C58.5157 62.5369 59.9004 58.1254 59.9057 53.606ZM1.77108 64.8438V62.7755H30.7381V64.8438C30.7376 65.2839 30.5614 65.7058 30.2483 66.017C29.9352 66.3281 29.5107 66.5031 29.0679 66.5036H3.44107C2.9983 66.5031 2.57381 66.3281 2.26073 66.0169C1.94765 65.7058 1.77156 65.2839 1.77108 64.8438V64.8438ZM17.188 68.2638H20.5842C22.9991 71.0192 26.0588 73.1421 29.4936 74.4455L27.8438 76.6488C23.5806 74.8859 19.8923 71.9835 17.188 68.2638V68.2638ZM35.9449 68.7785C36.122 68.5421 36.3522 68.35 36.6173 68.2176C36.8823 68.0853 37.1748 68.0164 37.4715 68.0164C37.7681 68.0164 38.0606 68.0853 38.3256 68.2176C38.5907 68.35 38.8209 68.5421 38.998 68.7785L50.3648 83.9581H24.5782L35.9449 68.7785ZM61.4376 89.4465H13.5052V87.4929C13.5057 87.0224 13.694 86.5713 14.0288 86.2387C14.3635 85.906 14.8174 85.7188 15.2908 85.7183H59.6523C60.1256 85.7189 60.5794 85.906 60.9141 86.2387C61.2488 86.5714 61.4371 87.0224 61.4376 87.4929V89.4465Z" fill="#7F5AF0"/>
</svg>
