<svg width="102" height="84" viewBox="0 0 102 84" fill="none" xmlns="http://www.w3.org/2000/svg">
<path d="M69.1996 60.0742L51.0195 41.894L32.8394 60.0742" stroke="#7F5AF0" stroke-width="2" stroke-linecap="round" stroke-linejoin="round"/>
<path d="M51.0195 41.894V82.7994" stroke="#7F5AF0" stroke-width="2" stroke-linecap="round" stroke-linejoin="round"/>
<path d="M89.1524 70.9369C93.5854 68.5202 97.0873 64.696 99.1055 60.068C101.124 55.44 101.543 50.2717 100.298 45.3788C99.0524 40.4859 96.2131 36.147 92.2279 33.047C88.2428 29.947 83.3387 28.2624 78.2898 28.259H72.5631C71.1874 22.9379 68.6233 17.9979 65.0635 13.8103C61.5038 9.62281 57.0411 6.29675 52.0109 4.08221C46.9807 1.86768 41.5139 0.822295 36.0215 1.02466C30.5292 1.22702 25.1541 2.67186 20.3005 5.25055C15.4469 7.82925 11.2411 11.4747 7.99914 15.9128C4.75722 20.351 2.56359 25.4663 1.58318 30.8742C0.602769 36.2822 0.861088 41.842 2.33872 47.1357C3.81634 52.4295 6.47483 57.3194 10.1143 61.4378" stroke="#7F5AF0" stroke-width="2" stroke-linecap="round" stroke-linejoin="round"/>
<path d="M69.1996 60.0742L51.0195 41.894L32.8394 60.0742" stroke="#7F5AF0" stroke-width="2" stroke-linecap="round" stroke-linejoin="round"/>
</svg>
