<svg width="100" height="97" viewBox="0 0 100 97" fill="none" xmlns="http://www.w3.org/2000/svg">
<path d="M1.66667 60C0.746667 60 0 59.2533 0 58.3333V5C0 2.24333 2.24333 0 5 0H95C97.7567 0 100 2.24333 100 5V10C100 10.92 99.2533 11.6667 98.3333 11.6667C97.4133 11.6667 96.6667 10.92 96.6667 10V5C96.6667 4.08333 95.9167 3.33333 95 3.33333H5C4.08333 3.33333 3.33333 4.08333 3.33333 5V58.3333C3.33333 59.2533 2.58667 60 1.66667 60Z" fill="#7F5AF0"/>
<path d="M50 96.6666H31.6667C30.7467 96.6666 30 95.9199 30 94.9999C30 94.0799 30.7467 93.3333 31.6667 93.3333H35C37.7567 93.3333 40 91.0899 40 88.3333V79.9999C40 79.0799 40.7467 78.3333 41.6667 78.3333C42.5867 78.3333 43.3333 79.0799 43.3333 79.9999V88.3333C43.3333 90.2099 42.71 91.9399 41.6633 93.3333H50C50.92 93.3333 51.6667 94.0799 51.6667 94.9999C51.6667 95.9199 50.92 96.6666 50 96.6666Z" fill="#7F5AF0"/>
<path d="M48.3333 79.9999H5C2.24333 79.9999 0 77.7566 0 74.9999V64.9999C0 64.0799 0.746667 63.3333 1.66667 63.3333H48.3333C49.2533 63.3333 50 64.0799 50 64.9999C50 65.9199 49.2533 66.6666 48.3333 66.6666H3.33333V74.9999C3.33333 75.9166 4.08333 76.6666 5 76.6666H48.3333C49.2533 76.6666 50 77.4133 50 78.3333C50 79.2533 49.2533 79.9999 48.3333 79.9999Z" fill="#7F5AF0"/>
<path d="M68.3333 23.3333H85C85.92 23.3333 86.6666 22.5867 86.6666 21.6667C86.6666 20.7467 85.92 20 85 20H68.3333C67.4133 20 66.6666 20.7467 66.6666 21.6667C66.6666 22.5867 67.4133 23.3333 68.3333 23.3333Z" fill="#7F5AF0"/>
<path d="M75 90.0001H78.3334C79.2534 90.0001 80 89.2534 80 88.3334C80 87.4134 79.2534 86.6667 78.3334 86.6667H75C74.08 86.6667 73.3334 87.4134 73.3334 88.3334C73.3334 89.2534 74.08 90.0001 75 90.0001Z" fill="#7F5AF0"/>
<path d="M91.6667 96.6666H61.6667C57.07 96.6666 53.3334 92.9299 53.3334 88.3333V21.6666C53.3334 17.0699 57.07 13.3333 61.6667 13.3333H91.6667C96.2634 13.3333 100 17.0699 100 21.6666V88.3333C100 92.9299 96.2634 96.6666 91.6667 96.6666ZM61.6667 16.6666C58.91 16.6666 56.6667 18.9099 56.6667 21.6666V88.3333C56.6667 91.0899 58.91 93.3333 61.6667 93.3333H91.6667C94.4234 93.3333 96.6667 91.0899 96.6667 88.3333V21.6666C96.6667 18.9099 94.4234 16.6666 91.6667 16.6666H61.6667Z" fill="#7F5AF0"/>
</svg>
