<svg width="102" height="102" viewBox="0 0 102 102" fill="none" xmlns="http://www.w3.org/2000/svg">
<path d="M90.0782 9.69067H1" stroke="#7F5AF0" stroke-width="2" stroke-linecap="round" stroke-linejoin="round"/>
<path d="M38.1536 38.0706H46.8441" stroke="#7F5AF0" stroke-width="2" stroke-miterlimit="10"/>
<path d="M33.8083 38.0706H18.5999" stroke="#7F5AF0" stroke-width="2" stroke-miterlimit="10"/>
<path d="M7.73657 46.7612H20.5538" stroke="#7F5AF0" stroke-width="2" stroke-miterlimit="10"/>
<path d="M24.8992 46.7612H37.935" stroke="#7F5AF0" stroke-width="2" stroke-miterlimit="10"/>
<path d="M55.8874 58.0598L50.4558 64.5777L55.8874 71.0956" stroke="#7F5AF0" stroke-width="2" stroke-linecap="round" stroke-linejoin="round"/>
<path d="M76.5273 58.0598L81.9589 64.5777L76.5273 71.0956" stroke="#7F5AF0" stroke-width="2" stroke-linecap="round" stroke-linejoin="round"/>
<path d="M64.0359 71.0969L68.3812 58.061" stroke="#7F5AF0" stroke-width="2" stroke-linecap="round" stroke-linejoin="round"/>
<path d="M65.6653 89.5642C79.4643 89.5642 90.6506 78.3779 90.6506 64.5788C90.6506 50.7798 79.4643 39.5935 65.6653 39.5935C51.8663 39.5935 40.6799 50.7798 40.6799 64.5788C40.6799 78.3779 51.8663 89.5642 65.6653 89.5642Z" stroke="#7F5AF0" stroke-width="2" stroke-miterlimit="10"/>
<path d="M82.8813 82.8813L101 101" stroke="#7F5AF0" stroke-width="2" stroke-linecap="round" stroke-linejoin="round"/>
<path d="M38.1536 38.0706H46.8441" stroke="#7F5AF0" stroke-width="2" stroke-miterlimit="10"/>
<path d="M33.8083 38.0706H18.5999" stroke="#7F5AF0" stroke-width="2" stroke-miterlimit="10"/>
<path d="M7.73657 46.7612H20.5538" stroke="#7F5AF0" stroke-width="2" stroke-miterlimit="10"/>
<path d="M24.8992 46.7612H37.935" stroke="#7F5AF0" stroke-width="2" stroke-miterlimit="10"/>
<path d="M7.73657 64.0066H14.2545" stroke="#7F5AF0" stroke-width="2" stroke-miterlimit="10"/>
<path d="M18.5999 64.0066H33.5897" stroke="#7F5AF0" stroke-width="2" stroke-miterlimit="10"/>
<path d="M33.8083 72.697H18.5999" stroke="#7F5AF0" stroke-width="2" stroke-miterlimit="10"/>
<path d="M7.73657 81.3877H14.0358" stroke="#7F5AF0" stroke-width="2" stroke-miterlimit="10"/>
<path d="M18.3813 81.3877H37.9351" stroke="#7F5AF0" stroke-width="2" stroke-miterlimit="10"/>
<path d="M18.3811 55.3159H33.5896" stroke="#7F5AF0" stroke-width="2" stroke-miterlimit="10"/>
<path d="M33.8081 90.0781H18.5996" stroke="#7F5AF0" stroke-width="2" stroke-miterlimit="10"/>
<path d="M7.73657 20.5537H14.2545" stroke="#7F5AF0" stroke-width="2" stroke-miterlimit="10"/>
<path d="M18.5996 20.5537H59.6611" stroke="#7F5AF0" stroke-width="2" stroke-miterlimit="10"/>
<path d="M7.73657 20.5537H14.2545" stroke="#7F5AF0" stroke-width="2" stroke-miterlimit="10"/>
<path d="M18.5996 20.5537H59.6611" stroke="#7F5AF0" stroke-width="2" stroke-miterlimit="10"/>
<path d="M38.1533 29.2444H68.3516" stroke="#7F5AF0" stroke-width="2" stroke-miterlimit="10"/>
<path d="M33.8081 29.2444H18.5996" stroke="#7F5AF0" stroke-width="2" stroke-miterlimit="10"/>
<path d="M38.1533 29.2444H68.3516" stroke="#7F5AF0" stroke-width="2" stroke-miterlimit="10"/>
<path d="M33.8081 29.2444H18.5996" stroke="#7F5AF0" stroke-width="2" stroke-miterlimit="10"/>
<path d="M90.0782 42.2801V1H1V100.941H77.0424" stroke="#7F5AF0" stroke-width="2" stroke-linecap="round" stroke-linejoin="round"/>
</svg>
