<svg width="102" height="61" viewBox="0 0 102 61" fill="none" xmlns="http://www.w3.org/2000/svg">
<path d="M19.8425 55.2341C19.1488 54.4038 18.7167 53.338 18.7167 52.1717V14.6376C18.7167 11.9958 20.8585 9.854 23.5003 9.854H70.6558" stroke="#7F5AF0" stroke-miterlimit="10" stroke-linecap="round" stroke-linejoin="round"/>
<path d="M92.2313 28.5081V52.1718C92.2313 53.3431 91.8216 54.4025 91.1228 55.2342" stroke="#7F5AF0" stroke-miterlimit="10" stroke-linecap="round" stroke-linejoin="round"/>
<path d="M89.4254 32.5437V47.5702C89.4254 50.212 87.2836 52.3538 84.6418 52.3538H26.3069C23.6651 52.3538 21.5233 50.212 21.5233 47.5702V17.0995C21.5233 14.4577 23.6651 12.3159 26.3069 12.3159H70.9976" stroke="#7F5AF0" stroke-miterlimit="10" stroke-linecap="round" stroke-linejoin="round"/>
<path d="M97.7266 55.2341H13.222C12.0261 55.2341 11.0564 56.2039 11.0564 57.3998V57.5558C11.0564 58.7517 12.0261 59.7215 13.222 59.7215H97.7259C98.9218 59.7215 99.8915 58.7517 99.8915 57.5558V57.3998C99.8922 56.2039 98.9225 55.2341 97.7266 55.2341Z" stroke="#7F5AF0" stroke-miterlimit="10" stroke-linecap="round" stroke-linejoin="round"/>
<path opacity="0.3" d="M69.259 57.4785H41.6896C41.0942 57.4785 40.6064 56.9915 40.6064 56.3953V56.3173C40.6064 55.7219 41.0935 55.2341 41.6896 55.2341H69.259C69.8544 55.2341 70.3422 55.7212 70.3422 56.3173V56.3953C70.3415 56.9908 69.8544 57.4785 69.259 57.4785Z" fill="white"/>
<path d="M69.259 57.4785H41.6896C41.0942 57.4785 40.6064 56.9915 40.6064 56.3953V56.3173C40.6064 55.7219 41.0935 55.2341 41.6896 55.2341H69.259C69.8544 55.2341 70.3422 55.7212 70.3422 56.3173V56.3953C70.3415 56.9908 69.8544 57.4785 69.259 57.4785Z" stroke="#7F5AF0" stroke-miterlimit="10" stroke-linecap="round" stroke-linejoin="round"/>
<path d="M28.9769 19.6194H54.268" stroke="#7F5AF0" stroke-miterlimit="10" stroke-linecap="round" stroke-linejoin="round"/>
<path d="M28.9769 26.8452H57.881" stroke="#7F5AF0" stroke-miterlimit="10" stroke-linecap="round" stroke-linejoin="round"/>
<path d="M4.50891 8.13062V15.1485" stroke="#7F5AF0" stroke-miterlimit="10" stroke-linecap="round" stroke-linejoin="round"/>
<path d="M8.0179 11.6394H1" stroke="#7F5AF0" stroke-miterlimit="10" stroke-linecap="round" stroke-linejoin="round"/>
<path d="M10.2637 23.7627V27.9646" stroke="#7F5AF0" stroke-miterlimit="10" stroke-linecap="round" stroke-linejoin="round"/>
<path d="M12.3643 25.8633H8.16309" stroke="#7F5AF0" stroke-miterlimit="10" stroke-linecap="round" stroke-linejoin="round"/>
<path d="M98.6652 15.8545L101 15.2208L99.5056 9.71818L96.8204 10.4473C96.0653 9.07651 95.1975 8.01067 94.2147 7.12549L95.5754 4.57109L90.5548 1.64384L89.1753 4.0407C87.6499 3.55656 85.9525 3.32533 84.3939 3.38747L83.7457 1L78.6102 2.39462L79.2584 4.78209C77.1491 5.71642 76.2668 6.61606 75.1959 7.80473L72.6437 6.44335L69.7179 11.4633L72.187 13.1072C71.7867 14.3681 71.5475 15.7346 71.5894 17.299L68.691 18.0859L70.1854 23.5885L72.7333 22.8962C73.5137 24.6536 74.6106 26.0179 76.0009 27.2702L74.5781 29.5977L79.5676 32.4115L81.192 29.8874C82.7174 30.3716 83.9264 30.6743 86.2184 30.4135L86.9772 33.207L92.1127 31.8124L91.354 29.0189C92.7298 28.2832 94.0854 27.2557 95.1563 26.0663L97.5785 27.4631L100.439 22.4605L98.0604 21.2783C98.6277 19.4957 98.8813 17.7658 98.6652 15.8545ZM87.1723 25.2201C82.6112 26.4587 77.9093 23.7655 76.6707 19.2045C75.4322 14.6434 78.1253 9.94146 82.6864 8.7022C87.2474 7.46366 91.9494 10.1568 93.1887 14.7179C94.4272 19.2796 91.7333 23.9816 87.1723 25.2201Z" stroke="#7F5AF0" stroke-miterlimit="10" stroke-linecap="round" stroke-linejoin="round"/>
<path opacity="0.3" d="M98.6652 15.8545L101 15.2208L99.5056 9.71818L96.8204 10.4473C96.0653 9.07651 95.1975 8.01067 94.2147 7.12549L95.5754 4.57109L90.5548 1.64384L89.1753 4.0407C87.6499 3.55656 85.9525 3.32533 84.3939 3.38747L83.7457 1L78.6102 2.39462L79.2584 4.78209C77.1491 5.71642 76.2668 6.61606 75.1959 7.80473L72.6437 6.44335L69.7179 11.4633L72.187 13.1072C71.7867 14.3681 71.5475 15.7346 71.5894 17.299L68.691 18.0859L70.1854 23.5885L72.7333 22.8962C73.5137 24.6536 74.6106 26.0179 76.0009 27.2702L74.5781 29.5977L79.5676 32.4115L81.192 29.8874C82.7174 30.3716 83.9264 30.6743 86.2184 30.4135L86.9772 33.207L92.1127 31.8124L91.354 29.0189C92.7298 28.2832 94.0854 27.2557 95.1563 26.0663L97.5785 27.4631L100.439 22.4605L98.0604 21.2783C98.6277 19.4957 98.8813 17.7658 98.6652 15.8545ZM87.1723 25.2201C82.6112 26.4587 77.9093 23.7655 76.6707 19.2045C75.4322 14.6434 78.1253 9.94146 82.6864 8.7022C87.2474 7.46366 91.9494 10.1568 93.1887 14.7179C94.4272 19.2796 91.7333 23.9816 87.1723 25.2201Z" fill="white"/>
<path d="M28.9769 33.3486H67.9974" stroke="#7F5AF0" stroke-miterlimit="10" stroke-linecap="round" stroke-linejoin="round"/>
<path opacity="0.3" d="M80.7246 46.5757H30.2242C29.2639 46.5757 28.4777 45.7902 28.4777 44.8292V41.0847C28.4777 40.1243 29.2639 39.3381 30.2242 39.3381H80.7246C81.6849 39.3381 82.4711 40.1236 82.4711 41.0847V44.8292C82.4711 45.7902 81.6849 46.5757 80.7246 46.5757Z" fill="white"/>
</svg>
