<svg width="68" height="54" viewBox="0 0 68 54" fill="none" xmlns="http://www.w3.org/2000/svg">
<g filter="url(#filter0_d_22_10)">
<path d="M34.241 13.4415V0H23.3783V30.3419C23.3783 31.9557 23.0159 33.1864 22.3005 34.0284C21.5852 34.8704 20.5625 35.299 19.2476 35.299C17.8094 35.299 16.7095 34.823 15.948 33.871C15.189 32.9228 14.8096 31.5062 14.8096 29.6459H4C4 34.5575 5.42053 38.3471 8.26159 41.0146C11.1026 43.6822 14.8709 45.0166 19.5664 45.0179C24.0582 45.0179 27.626 43.7479 30.2697 41.2081C31.1716 40.3407 31.9281 39.3342 32.5105 38.227C32.1116 37.6779 31.749 37.1034 31.4252 36.507C29.925 33.7547 29.1749 30.5359 29.1749 26.8507C29.1749 23.1654 29.925 19.9492 31.4252 17.2019C32.1747 15.8175 33.1234 14.5505 34.241 13.4415Z" fill="#2CB67D"/>
<path d="M52.4258 31.7414H64C63.0652 35.8869 61.0925 39.1499 58.082 41.5304C55.0714 43.911 51.3657 45.0956 46.965 45.0842C43.4864 45.0842 40.4038 44.3434 37.717 42.8617C35.6498 41.7374 33.8685 40.1537 32.5105 38.2327C32.1116 37.6836 31.749 37.109 31.4252 36.5127C29.925 33.7604 29.1749 30.5416 29.1749 26.8563C29.1749 23.1711 29.925 19.9548 31.4252 17.2076C32.175 15.8245 33.1236 14.5588 34.241 13.4509C35.2724 12.4283 36.4426 11.5557 37.717 10.8586C40.4075 9.37563 43.4902 8.63478 46.965 8.63605C51.41 8.63605 55.1245 9.79979 58.1085 12.1273C61.0925 14.4547 63.0532 17.7355 63.9905 21.9694H52.4163C51.4461 19.2639 49.5607 17.9087 46.7601 17.9036C44.7754 17.9036 43.1873 18.6811 41.9957 20.2229C40.8041 21.7646 40.2216 23.9815 40.2216 26.8601C40.2216 29.7388 40.8136 31.9576 41.9957 33.4974C43.1778 35.0373 44.7754 35.8167 46.7601 35.8167C49.5657 35.8104 51.4543 34.4519 52.4258 31.7414Z" fill="#7F5AF0"/>
</g>
<defs>
<filter id="filter0_d_22_10" x="0" y="0" width="68" height="53.0843" filterUnits="userSpaceOnUse" color-interpolation-filters="sRGB">
<feFlood flood-opacity="0" result="BackgroundImageFix"/>
<feColorMatrix in="SourceAlpha" type="matrix" values="0 0 0 0 0 0 0 0 0 0 0 0 0 0 0 0 0 0 127 0" result="hardAlpha"/>
<feOffset dy="4"/>
<feGaussianBlur stdDeviation="2"/>
<feComposite in2="hardAlpha" operator="out"/>
<feColorMatrix type="matrix" values="0 0 0 0 0 0 0 0 0 0 0 0 0 0 0 0 0 0 0.25 0"/>
<feBlend mode="normal" in2="BackgroundImageFix" result="effect1_dropShadow_22_10"/>
<feBlend mode="normal" in="SourceGraphic" in2="effect1_dropShadow_22_10" result="shape"/>
</filter>
</defs>
</svg>
