<svg width="243" height="217" viewBox="0 0 243 217" fill="none" xmlns="http://www.w3.org/2000/svg">
<path d="M113.56 135V125.512H116.952V124.328H108.856V125.512H112.232V135H113.56ZM123.143 135.192C126.295 135.192 128.455 132.824 128.455 129.672C128.455 126.52 126.295 124.152 123.143 124.152C119.991 124.152 117.847 126.52 117.847 129.672C117.847 132.824 119.991 135.192 123.143 135.192ZM123.143 134.008C120.743 134.008 119.223 132.152 119.223 129.672C119.223 127.176 120.743 125.336 123.143 125.336C125.527 125.336 127.079 127.176 127.079 129.672C127.079 132.152 125.527 134.008 123.143 134.008ZM131.842 135V130.76H134.802C136.93 130.76 138.146 129.288 138.146 127.544C138.146 125.8 136.946 124.328 134.802 124.328H130.514V135H131.842ZM134.642 129.576H131.842V125.512H134.642C135.906 125.512 136.77 126.344 136.77 127.544C136.77 128.744 135.906 129.576 134.642 129.576ZM112.845 150.192C115.725 150.192 116.781 148.592 116.781 147.056C116.781 143.072 110.461 144.448 110.461 142.048C110.461 141.04 111.389 140.352 112.653 140.352C113.821 140.352 114.941 140.736 115.741 141.632L116.541 140.656C115.645 139.712 114.381 139.152 112.765 139.152C110.653 139.152 109.085 140.368 109.085 142.128C109.085 145.936 115.405 144.4 115.405 147.152C115.405 147.984 114.797 149.008 112.893 149.008C111.389 149.008 110.237 148.272 109.549 147.472L108.749 148.496C109.629 149.488 111.005 150.192 112.845 150.192ZM125.756 150V148.816H120.092V145.136H125.644V143.952H120.092V140.512H125.756V139.328H118.764V150H125.756ZM132.737 150.192C135.889 150.192 138.049 147.824 138.049 144.672C138.049 141.52 135.889 139.152 132.737 139.152C129.585 139.152 127.441 141.52 127.441 144.672C127.441 147.824 129.585 150.192 132.737 150.192ZM132.737 149.008C130.337 149.008 128.817 147.152 128.817 144.672C128.817 142.176 130.337 140.336 132.737 140.336C135.121 140.336 136.673 142.176 136.673 144.672C136.673 147.152 135.121 149.008 132.737 149.008ZM91.7962 165.192C93.6842 165.192 94.9642 164.296 95.8602 163.064L94.7402 162.456C94.1322 163.352 93.0122 164.008 91.7962 164.008C89.4602 164.008 87.6842 162.2 87.6842 159.672C87.6842 157.112 89.4602 155.336 91.7962 155.336C93.0122 155.336 94.1322 155.976 94.7402 156.888L95.8442 156.264C94.9962 155.048 93.6842 154.152 91.7962 154.152C88.7242 154.152 86.3082 156.392 86.3082 159.672C86.3082 162.952 88.7242 165.192 91.7962 165.192ZM102.417 165.192C105.569 165.192 107.729 162.824 107.729 159.672C107.729 156.52 105.569 154.152 102.417 154.152C99.2647 154.152 97.1207 156.52 97.1207 159.672C97.1207 162.824 99.2647 165.192 102.417 165.192ZM102.417 164.008C100.017 164.008 98.4967 162.152 98.4967 159.672C98.4967 157.176 100.017 155.336 102.417 155.336C104.801 155.336 106.353 157.176 106.353 159.672C106.353 162.152 104.801 164.008 102.417 164.008ZM120.235 165V154.328H118.331L115.019 162.552L111.691 154.328H109.787V165H111.115V156.024L114.747 165H115.291L118.907 156.024V165H120.235ZM124.053 165V160.76H127.013C129.141 160.76 130.357 159.288 130.357 157.544C130.357 155.8 129.157 154.328 127.013 154.328H122.725V165H124.053ZM126.853 159.576H124.053V155.512H126.853C128.117 155.512 128.981 156.344 128.981 157.544C128.981 158.744 128.117 159.576 126.853 159.576ZM140.017 165L135.729 154.328H134.081L129.777 165H131.297L132.241 162.616H137.553L138.497 165H140.017ZM137.169 161.448H132.641L134.897 155.688L137.169 161.448ZM150.244 165V154.328H148.916V162.664L142.772 154.328H141.412V165H142.74V156.488L148.964 165H150.244ZM157.172 165V160.488L161.364 154.328H159.812L156.5 159.288L153.188 154.328H151.636L155.844 160.488V165H157.172Z" fill="white"/>
<path d="M113.56 135V135.25H113.81V135H113.56ZM113.56 125.512V125.262H113.31V125.512H113.56ZM116.952 125.512V125.762H117.202V125.512H116.952ZM116.952 124.328H117.202V124.078H116.952V124.328ZM108.856 124.328V124.078H108.606V124.328H108.856ZM108.856 125.512H108.606V125.762H108.856V125.512ZM112.232 125.512H112.482V125.262H112.232V125.512ZM112.232 135H111.982V135.25H112.232V135ZM113.81 135V125.512H113.31V135H113.81ZM113.56 125.762H116.952V125.262H113.56V125.762ZM117.202 125.512V124.328H116.702V125.512H117.202ZM116.952 124.078H108.856V124.578H116.952V124.078ZM108.606 124.328V125.512H109.106V124.328H108.606ZM108.856 125.762H112.232V125.262H108.856V125.762ZM111.982 125.512V135H112.482V125.512H111.982ZM112.232 135.25H113.56V134.75H112.232V135.25ZM123.143 135.442C126.446 135.442 128.705 132.949 128.705 129.672H128.205C128.205 132.699 126.145 134.942 123.143 134.942V135.442ZM128.705 129.672C128.705 126.395 126.446 123.902 123.143 123.902V124.402C126.145 124.402 128.205 126.645 128.205 129.672H128.705ZM123.143 123.902C119.84 123.902 117.597 126.396 117.597 129.672H118.097C118.097 126.644 120.143 124.402 123.143 124.402V123.902ZM117.597 129.672C117.597 132.948 119.84 135.442 123.143 135.442V134.942C120.143 134.942 118.097 132.7 118.097 129.672H117.597ZM123.143 133.758C122.012 133.758 121.102 133.323 120.471 132.605C119.838 131.884 119.473 130.862 119.473 129.672H118.973C118.973 130.962 119.369 132.108 120.095 132.935C120.825 133.765 121.874 134.258 123.143 134.258V133.758ZM119.473 129.672C119.473 128.474 119.838 127.452 120.471 126.733C121.101 126.018 122.012 125.586 123.143 125.586V125.086C121.875 125.086 120.825 125.574 120.096 126.403C119.369 127.228 118.973 128.374 118.973 129.672H119.473ZM123.143 125.586C124.267 125.586 125.182 126.018 125.818 126.734C126.457 127.453 126.829 128.475 126.829 129.672H127.329C127.329 128.373 126.925 127.227 126.192 126.402C125.457 125.574 124.404 125.086 123.143 125.086V125.586ZM126.829 129.672C126.829 130.861 126.458 131.883 125.818 132.604C125.181 133.323 124.266 133.758 123.143 133.758V134.258C124.405 134.258 125.457 133.765 126.192 132.936C126.925 132.109 127.329 130.963 127.329 129.672H126.829ZM131.842 135V135.25H132.092V135H131.842ZM131.842 130.76V130.51H131.592V130.76H131.842ZM130.514 124.328V124.078H130.264V124.328H130.514ZM130.514 135H130.264V135.25H130.514V135ZM131.842 129.576H131.592V129.826H131.842V129.576ZM131.842 125.512V125.262H131.592V125.512H131.842ZM132.092 135V130.76H131.592V135H132.092ZM131.842 131.01H134.802V130.51H131.842V131.01ZM134.802 131.01C135.926 131.01 136.829 130.62 137.451 129.98C138.071 129.343 138.396 128.474 138.396 127.544H137.896C137.896 128.358 137.612 129.097 137.092 129.632C136.574 130.164 135.805 130.51 134.802 130.51V131.01ZM138.396 127.544C138.396 126.615 138.075 125.746 137.457 125.108C136.837 124.468 135.934 124.078 134.802 124.078V124.578C135.814 124.578 136.582 124.924 137.098 125.456C137.616 125.99 137.896 126.729 137.896 127.544H138.396ZM134.802 124.078H130.514V124.578H134.802V124.078ZM130.264 124.328V135H130.764V124.328H130.264ZM130.514 135.25H131.842V134.75H130.514V135.25ZM134.642 129.326H131.842V129.826H134.642V129.326ZM132.092 129.576V125.512H131.592V129.576H132.092ZM131.842 125.762H134.642V125.262H131.842V125.762ZM134.642 125.762C135.218 125.762 135.685 125.951 136.007 126.259C136.327 126.566 136.52 127.006 136.52 127.544H137.02C137.02 126.882 136.78 126.306 136.352 125.897C135.926 125.489 135.329 125.262 134.642 125.262V125.762ZM136.52 127.544C136.52 128.082 136.327 128.522 136.007 128.829C135.685 129.137 135.218 129.326 134.642 129.326V129.826C135.329 129.826 135.926 129.599 136.352 129.191C136.78 128.782 137.02 128.206 137.02 127.544H136.52ZM115.741 141.632L115.554 141.799L115.749 142.016L115.934 141.79L115.741 141.632ZM116.541 140.656L116.734 140.814L116.874 140.644L116.722 140.484L116.541 140.656ZM109.549 147.472L109.738 147.309L109.539 147.078L109.352 147.318L109.549 147.472ZM108.749 148.496L108.552 148.342L108.423 148.506L108.562 148.662L108.749 148.496ZM112.845 150.442C114.331 150.442 115.383 150.028 116.065 149.381C116.746 148.735 117.031 147.881 117.031 147.056H116.531C116.531 147.767 116.287 148.481 115.721 149.019C115.155 149.556 114.238 149.942 112.845 149.942V150.442ZM117.031 147.056C117.031 145.98 116.598 145.248 115.948 144.734C115.314 144.232 114.482 143.945 113.69 143.718C112.876 143.484 112.122 143.316 111.552 143.055C111.272 142.927 111.061 142.787 110.921 142.625C110.787 142.47 110.711 142.286 110.711 142.048H110.211C110.211 142.41 110.332 142.708 110.543 142.952C110.749 143.19 111.032 143.367 111.344 143.51C111.959 143.791 112.785 143.978 113.552 144.198C114.34 144.425 115.087 144.691 115.638 145.126C116.173 145.55 116.531 146.14 116.531 147.056H117.031ZM110.711 142.048C110.711 141.629 110.901 141.276 111.234 141.021C111.572 140.762 112.064 140.602 112.653 140.602V140.102C111.978 140.102 111.373 140.286 110.931 140.623C110.484 140.964 110.211 141.459 110.211 142.048H110.711ZM112.653 140.602C113.766 140.602 114.812 140.967 115.554 141.799L115.927 141.465C115.069 140.505 113.875 140.102 112.653 140.102V140.602ZM115.934 141.79L116.734 140.814L116.347 140.498L115.547 141.474L115.934 141.79ZM116.722 140.484C115.775 139.486 114.443 138.902 112.765 138.902V139.402C114.318 139.402 115.515 139.938 116.359 140.828L116.722 140.484ZM112.765 138.902C110.57 138.902 108.835 140.18 108.835 142.128H109.335C109.335 140.556 110.735 139.402 112.765 139.402V138.902ZM108.835 142.128C108.835 143.166 109.273 143.856 109.924 144.334C110.558 144.799 111.39 145.06 112.178 145.277C112.987 145.5 113.74 145.677 114.303 145.964C114.58 146.105 114.791 146.265 114.934 146.453C115.072 146.637 115.155 146.86 115.155 147.152H115.655C115.655 146.756 115.539 146.425 115.333 146.152C115.129 145.882 114.847 145.68 114.531 145.519C113.909 145.201 113.082 145.008 112.311 144.795C111.519 144.576 110.771 144.335 110.22 143.931C109.687 143.54 109.335 142.994 109.335 142.128H108.835ZM115.155 147.152C115.155 147.508 115.025 147.902 114.693 148.208C114.361 148.515 113.8 148.758 112.893 148.758V149.258C113.889 149.258 114.584 148.989 115.032 148.576C115.48 148.162 115.655 147.628 115.655 147.152H115.155ZM112.893 148.758C111.475 148.758 110.388 148.065 109.738 147.309L109.359 147.635C110.085 148.479 111.303 149.258 112.893 149.258V148.758ZM109.352 147.318L108.552 148.342L108.946 148.65L109.746 147.626L109.352 147.318ZM108.562 148.662C109.491 149.71 110.937 150.442 112.845 150.442V149.942C111.073 149.942 109.766 149.266 108.936 148.33L108.562 148.662ZM125.756 150V150.25H126.006V150H125.756ZM125.756 148.816H126.006V148.566H125.756V148.816ZM120.092 148.816H119.842V149.066H120.092V148.816ZM120.092 145.136V144.886H119.842V145.136H120.092ZM125.644 145.136V145.386H125.894V145.136H125.644ZM125.644 143.952H125.894V143.702H125.644V143.952ZM120.092 143.952H119.842V144.202H120.092V143.952ZM120.092 140.512V140.262H119.842V140.512H120.092ZM125.756 140.512V140.762H126.006V140.512H125.756ZM125.756 139.328H126.006V139.078H125.756V139.328ZM118.764 139.328V139.078H118.514V139.328H118.764ZM118.764 150H118.514V150.25H118.764V150ZM126.006 150V148.816H125.506V150H126.006ZM125.756 148.566H120.092V149.066H125.756V148.566ZM120.342 148.816V145.136H119.842V148.816H120.342ZM120.092 145.386H125.644V144.886H120.092V145.386ZM125.894 145.136V143.952H125.394V145.136H125.894ZM125.644 143.702H120.092V144.202H125.644V143.702ZM120.342 143.952V140.512H119.842V143.952H120.342ZM120.092 140.762H125.756V140.262H120.092V140.762ZM126.006 140.512V139.328H125.506V140.512H126.006ZM125.756 139.078H118.764V139.578H125.756V139.078ZM118.514 139.328V150H119.014V139.328H118.514ZM118.764 150.25H125.756V149.75H118.764V150.25ZM132.737 150.442C136.04 150.442 138.299 147.949 138.299 144.672H137.799C137.799 147.699 135.738 149.942 132.737 149.942V150.442ZM138.299 144.672C138.299 141.395 136.04 138.902 132.737 138.902V139.402C135.738 139.402 137.799 141.645 137.799 144.672H138.299ZM132.737 138.902C129.433 138.902 127.191 141.396 127.191 144.672H127.691C127.691 141.644 129.737 139.402 132.737 139.402V138.902ZM127.191 144.672C127.191 147.948 129.433 150.442 132.737 150.442V149.942C129.737 149.942 127.691 147.7 127.691 144.672H127.191ZM132.737 148.758C131.606 148.758 130.695 148.323 130.065 147.605C129.431 146.884 129.067 145.862 129.067 144.672H128.567C128.567 145.962 128.963 147.108 129.689 147.935C130.419 148.765 131.468 149.258 132.737 149.258V148.758ZM129.067 144.672C129.067 143.474 129.432 142.452 130.065 141.733C130.695 141.018 131.605 140.586 132.737 140.586V140.086C131.469 140.086 130.419 140.574 129.689 141.403C128.962 142.228 128.567 143.374 128.567 144.672H129.067ZM132.737 140.586C133.86 140.586 134.775 141.018 135.412 141.734C136.051 142.453 136.423 143.475 136.423 144.672H136.923C136.923 143.373 136.519 142.227 135.786 141.402C135.051 140.574 133.998 140.086 132.737 140.086V140.586ZM136.423 144.672C136.423 145.861 136.051 146.883 135.412 147.604C134.775 148.323 133.86 148.758 132.737 148.758V149.258C133.998 149.258 135.051 148.765 135.786 147.936C136.519 147.109 136.923 145.963 136.923 144.672H136.423ZM95.8602 163.064L96.0624 163.211L96.2301 162.98L95.9795 162.844L95.8602 163.064ZM94.7402 162.456L94.8595 162.236L94.6605 162.128L94.5333 162.316L94.7402 162.456ZM94.7402 156.888L94.5322 157.027L94.661 157.22L94.8632 157.106L94.7402 156.888ZM95.8442 156.264L95.9672 156.482L96.2064 156.346L96.0492 156.121L95.8442 156.264ZM91.7962 165.442C93.7799 165.442 95.1294 164.494 96.0624 163.211L95.658 162.917C94.799 164.098 93.5885 164.942 91.7962 164.942V165.442ZM95.9795 162.844L94.8595 162.236L94.6209 162.676L95.7409 163.284L95.9795 162.844ZM94.5333 162.316C93.9696 163.146 92.9254 163.758 91.7962 163.758V164.258C93.0989 164.258 94.2948 163.558 94.9471 162.596L94.5333 162.316ZM91.7962 163.758C89.6082 163.758 87.9342 162.072 87.9342 159.672H87.4342C87.4342 162.328 89.3122 164.258 91.7962 164.258V163.758ZM87.9342 159.672C87.9342 157.241 89.607 155.586 91.7962 155.586V155.086C89.3134 155.086 87.4342 156.983 87.4342 159.672H87.9342ZM91.7962 155.586C92.9274 155.586 93.9699 156.183 94.5322 157.027L94.9482 156.749C94.2945 155.769 93.097 155.086 91.7962 155.086V155.586ZM94.8632 157.106L95.9672 156.482L95.7212 156.046L94.6172 156.67L94.8632 157.106ZM96.0492 156.121C95.1612 154.848 93.777 153.902 91.7962 153.902V154.402C93.5913 154.402 94.8311 155.248 95.6391 156.407L96.0492 156.121ZM91.7962 153.902C88.5905 153.902 86.0582 156.25 86.0582 159.672H86.5582C86.5582 156.534 88.8579 154.402 91.7962 154.402V153.902ZM86.0582 159.672C86.0582 163.094 88.5905 165.442 91.7962 165.442V164.942C88.8579 164.942 86.5582 162.81 86.5582 159.672H86.0582ZM102.417 165.442C105.719 165.442 107.979 162.949 107.979 159.672H107.479C107.479 162.699 105.418 164.942 102.417 164.942V165.442ZM107.979 159.672C107.979 156.395 105.719 153.902 102.417 153.902V154.402C105.418 154.402 107.479 156.645 107.479 159.672H107.979ZM102.417 153.902C99.113 153.902 96.8707 156.396 96.8707 159.672H97.3707C97.3707 156.644 99.4163 154.402 102.417 154.402V153.902ZM96.8707 159.672C96.8707 162.948 99.113 165.442 102.417 165.442V164.942C99.4163 164.942 97.3707 162.7 97.3707 159.672H96.8707ZM102.417 163.758C101.286 163.758 100.375 163.323 99.7445 162.605C99.1111 161.884 98.7467 160.862 98.7467 159.672H98.2467C98.2467 160.962 98.6423 162.108 99.3689 162.935C100.098 163.765 101.148 164.258 102.417 164.258V163.758ZM98.7467 159.672C98.7467 158.474 99.1113 157.452 99.7443 156.733C100.375 156.018 101.285 155.586 102.417 155.586V155.086C101.148 155.086 100.099 155.574 99.3691 156.403C98.6421 157.228 98.2467 158.374 98.2467 159.672H98.7467ZM102.417 155.586C103.54 155.586 104.455 156.018 105.092 156.734C105.731 157.453 106.103 158.475 106.103 159.672H106.603C106.603 158.373 106.199 157.227 105.466 156.402C104.73 155.574 103.677 155.086 102.417 155.086V155.586ZM106.103 159.672C106.103 160.861 105.731 161.883 105.092 162.604C104.455 163.323 103.539 163.758 102.417 163.758V164.258C103.678 164.258 104.731 163.765 105.466 162.936C106.198 162.109 106.603 160.963 106.603 159.672H106.103ZM120.235 165V165.25H120.485V165H120.235ZM120.235 154.328H120.485V154.078H120.235V154.328ZM118.331 154.328V154.078H118.162L118.099 154.235L118.331 154.328ZM115.019 162.552L114.787 162.646L115.02 163.22L115.251 162.645L115.019 162.552ZM111.691 154.328L111.923 154.234L111.86 154.078H111.691V154.328ZM109.787 154.328V154.078H109.537V154.328H109.787ZM109.787 165H109.537V165.25H109.787V165ZM111.115 165V165.25H111.365V165H111.115ZM111.115 156.024L111.347 155.93L110.865 156.024H111.115ZM114.747 165L114.515 165.094L114.579 165.25H114.747V165ZM115.291 165V165.25H115.46L115.523 165.093L115.291 165ZM118.907 156.024H119.157L118.675 155.931L118.907 156.024ZM118.907 165H118.657V165.25H118.907V165ZM120.485 165V154.328H119.985V165H120.485ZM120.235 154.078H118.331V154.578H120.235V154.078ZM118.099 154.235L114.787 162.459L115.251 162.645L118.563 154.421L118.099 154.235ZM115.251 162.458L111.923 154.234L111.459 154.422L114.787 162.646L115.251 162.458ZM111.691 154.078H109.787V154.578H111.691V154.078ZM109.537 154.328V165H110.037V154.328H109.537ZM109.787 165.25H111.115V164.75H109.787V165.25ZM111.365 165V156.024H110.865V165H111.365ZM110.883 156.118L114.515 165.094L114.979 164.906L111.347 155.93L110.883 156.118ZM114.747 165.25H115.291V164.75H114.747V165.25ZM115.523 165.093L119.139 156.117L118.675 155.931L115.059 164.907L115.523 165.093ZM118.657 156.024V165H119.157V156.024H118.657ZM118.907 165.25H120.235V164.75H118.907V165.25ZM124.053 165V165.25H124.303V165H124.053ZM124.053 160.76V160.51H123.803V160.76H124.053ZM122.725 154.328V154.078H122.475V154.328H122.725ZM122.725 165H122.475V165.25H122.725V165ZM124.053 159.576H123.803V159.826H124.053V159.576ZM124.053 155.512V155.262H123.803V155.512H124.053ZM124.303 165V160.76H123.803V165H124.303ZM124.053 161.01H127.013V160.51H124.053V161.01ZM127.013 161.01C128.137 161.01 129.04 160.62 129.662 159.98C130.282 159.343 130.607 158.474 130.607 157.544H130.107C130.107 158.358 129.823 159.097 129.303 159.632C128.785 160.164 128.016 160.51 127.013 160.51V161.01ZM130.607 157.544C130.607 156.615 130.286 155.746 129.668 155.108C129.048 154.468 128.145 154.078 127.013 154.078V154.578C128.025 154.578 128.793 154.924 129.309 155.456C129.827 155.99 130.107 156.729 130.107 157.544H130.607ZM127.013 154.078H122.725V154.578H127.013V154.078ZM122.475 154.328V165H122.975V154.328H122.475ZM122.725 165.25H124.053V164.75H122.725V165.25ZM126.853 159.326H124.053V159.826H126.853V159.326ZM124.303 159.576V155.512H123.803V159.576H124.303ZM124.053 155.762H126.853V155.262H124.053V155.762ZM126.853 155.762C127.429 155.762 127.896 155.951 128.218 156.259C128.538 156.566 128.731 157.006 128.731 157.544H129.231C129.231 156.882 128.991 156.306 128.563 155.897C128.137 155.489 127.54 155.262 126.853 155.262V155.762ZM128.731 157.544C128.731 158.082 128.538 158.522 128.218 158.829C127.896 159.137 127.429 159.326 126.853 159.326V159.826C127.54 159.826 128.137 159.599 128.563 159.191C128.991 158.782 129.231 158.206 129.231 157.544H128.731ZM140.017 165V165.25H140.387L140.249 164.907L140.017 165ZM135.729 154.328L135.961 154.235L135.898 154.078H135.729V154.328ZM134.081 154.328V154.078H133.912L133.849 154.234L134.081 154.328ZM129.777 165L129.545 164.906L129.406 165.25H129.777V165ZM131.297 165V165.25H131.467L131.529 165.092L131.297 165ZM132.241 162.616V162.366H132.071L132.008 162.524L132.241 162.616ZM137.553 162.616L137.785 162.524L137.723 162.366H137.553V162.616ZM138.497 165L138.264 165.092L138.327 165.25H138.497V165ZM137.169 161.448V161.698H137.536L137.401 161.356L137.169 161.448ZM132.641 161.448L132.408 161.357L132.274 161.698H132.641V161.448ZM134.897 155.688L135.129 155.596L134.896 155.005L134.664 155.597L134.897 155.688ZM140.249 164.907L135.961 154.235L135.497 154.421L139.785 165.093L140.249 164.907ZM135.729 154.078H134.081V154.578H135.729V154.078ZM133.849 154.234L129.545 164.906L130.009 165.094L134.313 154.422L133.849 154.234ZM129.777 165.25H131.297V164.75H129.777V165.25ZM131.529 165.092L132.473 162.708L132.008 162.524L131.064 164.908L131.529 165.092ZM132.241 162.866H137.553V162.366H132.241V162.866ZM137.32 162.708L138.264 165.092L138.729 164.908L137.785 162.524L137.32 162.708ZM138.497 165.25H140.017V164.75H138.497V165.25ZM137.169 161.198H132.641V161.698H137.169V161.198ZM132.874 161.539L135.13 155.779L134.664 155.597L132.408 161.357L132.874 161.539ZM134.664 155.78L136.936 161.54L137.401 161.356L135.129 155.596L134.664 155.78ZM150.244 165V165.25H150.494V165H150.244ZM150.244 154.328H150.494V154.078H150.244V154.328ZM148.916 154.328V154.078H148.666V154.328H148.916ZM148.916 162.664L148.715 162.812L149.166 163.425V162.664H148.916ZM142.772 154.328L142.973 154.18L142.898 154.078H142.772V154.328ZM141.412 154.328V154.078H141.162V154.328H141.412ZM141.412 165H141.162V165.25H141.412V165ZM142.74 165V165.25H142.99V165H142.74ZM142.74 156.488L142.942 156.34L142.49 155.723V156.488H142.74ZM148.964 165L148.762 165.148L148.837 165.25H148.964V165ZM150.494 165V154.328H149.994V165H150.494ZM150.244 154.078H148.916V154.578H150.244V154.078ZM148.666 154.328V162.664H149.166V154.328H148.666ZM149.117 162.516L142.973 154.18L142.571 154.476L148.715 162.812L149.117 162.516ZM142.772 154.078H141.412V154.578H142.772V154.078ZM141.162 154.328V165H141.662V154.328H141.162ZM141.412 165.25H142.74V164.75H141.412V165.25ZM142.99 165V156.488H142.49V165H142.99ZM142.538 156.636L148.762 165.148L149.166 164.852L142.942 156.34L142.538 156.636ZM148.964 165.25H150.244V164.75H148.964V165.25ZM157.172 165V165.25H157.422V165H157.172ZM157.172 160.488L156.966 160.347L156.922 160.411V160.488H157.172ZM161.364 154.328L161.571 154.469L161.837 154.078H161.364V154.328ZM159.812 154.328V154.078H159.679L159.604 154.189L159.812 154.328ZM156.5 159.288L156.292 159.427L156.5 159.738L156.708 159.427L156.5 159.288ZM153.188 154.328L153.396 154.189L153.322 154.078H153.188V154.328ZM151.636 154.328V154.078H151.163L151.43 154.469L151.636 154.328ZM155.844 160.488H156.094V160.411L156.051 160.347L155.844 160.488ZM155.844 165H155.594V165.25H155.844V165ZM157.422 165V160.488H156.922V165H157.422ZM157.379 160.629L161.571 154.469L161.158 154.187L156.966 160.347L157.379 160.629ZM161.364 154.078H159.812V154.578H161.364V154.078ZM159.604 154.189L156.292 159.149L156.708 159.427L160.02 154.467L159.604 154.189ZM156.708 159.149L153.396 154.189L152.98 154.467L156.292 159.427L156.708 159.149ZM153.188 154.078H151.636V154.578H153.188V154.078ZM151.43 154.469L155.638 160.629L156.051 160.347L151.843 154.187L151.43 154.469ZM155.594 160.488V165H156.094V160.488H155.594ZM155.844 165.25H157.172V164.75H155.844V165.25Z" fill="white"/>
<path d="M122.765 78.6657C122.577 78.6657 122.577 78.4649 122.765 78.6657L121.827 78.0633L121.639 77.8625L99.5036 60.9972C99.5036 60.9972 99.3161 60.9973 99.3161 60.7965L98.9409 60.3949L98.7533 60.1941H98.3781L92 55.3755L104.569 57.3833C105.131 57.3833 105.319 57.584 105.882 57.7848C106.069 57.7848 106.445 57.9856 106.445 57.9856C107.007 58.1864 107.195 58.3872 107.57 58.5879C107.945 58.7887 108.133 58.9895 108.508 59.1903C108.696 59.391 109.071 59.5918 109.071 59.7926C109.258 59.9934 109.446 59.9934 109.634 60.1941C110.009 60.3949 110.196 60.5957 110.196 60.7965C110.759 61.3988 111.134 62.0011 111.697 62.4027L121.639 77.461L121.827 77.6618L122.765 78.6657Z" fill="#18AAD1"/>
<path d="M122.765 101.956L121.827 100.35L121.639 100.149L92.1875 55.3755L98.5656 60.1942L99.6912 60.9973L121.827 77.8626H122.015L122.765 78.4649C122.765 78.4649 122.952 78.4649 122.952 78.6657L123.89 77.8626L153.717 55.3755L123.703 100.35L123.515 100.55L122.765 101.956Z" fill="#2AD2FF"/>
<path d="M122.765 71.0358L121.827 69.4296L121.639 69.2288L114.323 58.3868L121.639 59.993H121.827L122.765 60.1938L123.703 59.993L130.831 58.186L123.703 69.4296V69.6304L122.765 71.0358Z" fill="#18AAD1"/>
<path d="M153.905 55.1748L144.525 56.5802L140.961 57.1826C138.147 57.5841 135.521 59.1904 133.833 61.8005L123.89 77.0595L123.703 77.2603L122.765 78.6658L123.89 77.4611L124.078 77.2603L122.765 78.6658L148.09 59.3911L153.905 55.1748Z" fill="#18AAD1"/>
<path d="M127.455 23.4521C127.455 32.2862 113.198 36.9041 113.198 46.3406C113.01 48.5492 113.573 50.7577 114.511 52.7655C114.511 52.7655 109.071 47.1437 109.071 41.1204C109.071 35.0971 114.323 26.0622 114.323 26.0622C114.323 30.0777 115.824 31.2824 117.325 31.4831H117.512C119.201 31.4831 120.139 30.0777 120.139 28.0699C120.139 26.0622 118.075 24.0544 118.075 20.0389C118.075 16.2241 122.577 10 122.577 10C125.766 14.0155 127.455 18.6334 127.455 23.4521Z" fill="#2AD2FF"/>
<path d="M123.515 55.5768C119.013 55.5768 115.636 51.762 115.636 47.1441V46.9434C115.636 36.7037 128.955 35.6998 128.955 21.8462C129.331 22.4485 132.895 27.6687 132.895 33.2905C132.895 40.3177 126.704 42.1247 126.704 45.5379C126.704 46.9434 127.267 47.9472 129.143 47.9472C129.331 47.9472 129.518 47.9472 129.706 47.7465C133.27 46.1402 135.709 42.5263 135.896 38.3099C135.896 38.5107 137.772 55.5768 123.515 55.5768Z" fill="#2AD2FF"/>
<path d="M129.331 47.9473C129.518 47.9473 129.706 47.9473 129.893 47.7465C128.018 48.3488 121.077 50.1558 121.077 44.9356C121.077 38.5107 131.394 37.1053 131.394 31.6843C131.394 28.2711 130.644 24.8579 128.955 21.8462C129.331 22.4485 132.895 27.6687 132.895 33.2905C132.895 40.3177 126.704 42.1247 126.704 45.5379C126.892 46.9434 127.642 47.9473 129.331 47.9473Z" fill="#18AAD1"/>
<path d="M123.378 27.0661C123.378 32.0855 117.375 31.684 117 31.4832H117.563C119.251 31.4832 120.189 30.0778 120.189 28.07C120.189 26.0622 118.126 24.0544 118.126 20.0389C118.126 16.2241 122.628 10 122.628 10C121.127 12.6101 120.377 15.421 120.189 18.2319C120.189 22.8498 123.378 23.2513 123.378 27.0661Z" fill="#18AAD1"/>
<path d="M120.162 115.02L115.824 111.932H121.148L122.923 106.373L124.5 111.932H129.824L125.486 115.02L127.063 120.373L122.725 117.079L118.19 120.373L120.162 115.02Z" fill="#2AD2FF"/>
<path d="M143.338 115.02L139 111.932H144.324L146.099 106.373L147.676 111.932H153L148.662 115.02L150.239 120.373L145.901 117.079L141.366 120.373L143.338 115.02Z" fill="#2AD2FF"/>
<path d="M166.338 115.02L162 111.932H167.324L169.099 106.373L170.676 111.932H176L171.662 115.02L173.239 120.373L168.901 117.079L164.366 120.373L166.338 115.02Z" fill="#2AD2FF"/>
<path d="M96.338 115.02L92 111.932H97.3239L99.0986 106.373L100.676 111.932H106L101.662 115.02L103.239 120.373L98.9014 117.079L94.5634 120.373L96.338 115.02Z" fill="#2AD2FF"/>
<path d="M73.338 115.02L69 111.932H74.3239L76.0986 106.373L77.6761 111.932H83L78.662 115.02L80.2394 120.373L75.9014 117.079L71.5634 120.373L73.338 115.02Z" fill="#2AD2FF"/>
<path d="M178.1 170.1H68.7998V188.3H178.1V170.1Z" fill="#0460B5"/>
<path d="M77.2 161H55L59.6 170.1L55 179.2H67.3L67.4 169.3L77.2 161Z" fill="#0460B5"/>
<path d="M169.8 161H191.9L187.3 170.1L191.9 179.2H179.6V169.3L169.8 161Z" fill="#0460B5"/>
<path d="M79.8998 176C80.4998 176.3 80.9998 176.8 81.2998 177.3C81.5998 177.9 81.7998 178.6 81.7998 179.2C81.7998 179.9 81.5998 180.5 81.2998 181.1C80.9998 181.7 80.4998 182.1 79.8998 182.4C79.2998 182.7 78.5998 182.9 77.8998 182.9H74.7998V175.4H77.8998C78.5998 175.5 79.2998 175.6 79.8998 176ZM79.1998 181.4C79.5998 181.2 79.8998 180.9 80.0998 180.5C80.4998 179.7 80.4998 178.7 80.0998 177.9C79.8998 177.5 79.5998 177.2 79.1998 177C78.7998 176.8 78.3998 176.7 77.8998 176.7H76.1998V181.7H77.8998C78.2998 181.7 78.7998 181.6 79.1998 181.4Z" fill="white"/>
<path d="M83 175.5H88.5V176.7H84.5V178.6H88.1V179.8H84.5V181.7H88.7V182.9H83V175.5Z" fill="white"/>
<path d="M93.6998 176.9C93.3998 176.8 92.9998 176.7 92.5998 176.7C92.2998 176.7 91.9998 176.8 91.7998 176.9C91.5998 177 91.4998 177.2 91.4998 177.4C91.4998 177.6 91.5998 177.8 91.6998 177.9C91.7998 178 91.9998 178.2 92.1998 178.2C92.4998 178.3 92.7998 178.4 93.0998 178.5C93.4998 178.6 93.8998 178.8 94.2998 178.9C94.5998 179.1 94.8998 179.3 95.0998 179.6C95.2998 179.9 95.4998 180.3 95.3998 180.8C95.3998 181.2 95.2998 181.7 94.9998 182C94.6998 182.3 94.3998 182.6 93.9998 182.8C93.4998 183 92.9998 183.1 92.4998 183.1C91.8998 183.1 91.2998 183 90.7998 182.8C90.2998 182.6 89.7998 182.3 89.2998 181.9L89.8998 180.7C90.2998 181 90.6998 181.3 91.1998 181.5C91.5998 181.7 92.0998 181.8 92.4998 181.8C92.7998 181.8 93.1998 181.7 93.3998 181.6C93.7998 181.4 93.7998 180.9 93.5998 180.5L93.4998 180.4C93.2998 180.3 93.1998 180.1 92.9998 180.1C92.7998 180 92.4998 179.9 92.0998 179.8C91.6998 179.7 91.2998 179.5 90.8998 179.4C90.5998 179.3 90.2998 179 90.0998 178.8C89.8998 178.5 89.6998 178.1 89.7998 177.7C89.7998 177.3 89.8998 176.9 90.0998 176.6C90.3998 176.3 90.6998 176 91.0998 175.8C91.5998 175.6 92.0998 175.5 92.5998 175.5C93.0998 175.5 93.5998 175.6 93.9998 175.7C94.3998 175.8 94.8998 176 95.2998 176.3L94.6998 177.5C94.4998 177.2 94.0998 177 93.6998 176.9Z" fill="white"/>
<path d="M96.8999 175.5H98.2999V183H96.8999V175.5Z" fill="white"/>
<path d="M105.2 179.2H106.4V182.1C106 182.4 105.5 182.6 105 182.8C104.5 183 104 183.1 103.4 183.1C102.7 183.1 102 182.9 101.4 182.6C100.8 182.3 100.3 181.8 100 181.2C99.6 180.6 99.5 179.9 99.5 179.2C99.5 178.5 99.7 177.8 100 177.3C100.4 176.7 100.9 176.2 101.5 175.9C102.1 175.6 102.8 175.4 103.5 175.4C104 175.4 104.6 175.5 105.1 175.7C105.6 175.9 106.1 176.1 106.4 176.5L105.6 177.6C105.3 177.3 105 177.1 104.6 177C104.2 176.9 103.9 176.8 103.5 176.8C103 176.8 102.6 176.9 102.2 177.1C101 177.8 100.6 179.4 101.3 180.6C101.8 181.4 102.6 181.9 103.5 181.9C103.8 181.9 104 181.9 104.3 181.8C104.6 181.7 104.9 181.6 105.1 181.4L105.2 179.2Z" fill="white"/>
<path d="M113.4 175.5H114.8V183H113.5L109.6 177.8V183H108.2V175.5H109.6L113.5 180.7L113.4 175.5Z" fill="white"/>
<path d="M121.3 183L120 180.8H118V183H116.6V175.5H119.7C120.5 175.4 121.3 175.7 122 176.1C122.5 176.6 122.8 177.3 122.8 178C122.8 178.5 122.7 179 122.4 179.5C122.1 179.9 121.7 180.2 121.3 180.4L123 182.9L121.3 183ZM118 179.5H119.7C120.2 179.5 120.6 179.4 121 179.1C121.3 178.8 121.4 178.5 121.4 178.1C121.4 177.7 121.3 177.3 121 177.1C120.6 176.9 120.2 176.7 119.8 176.8H118V179.5Z" fill="white"/>
<path d="M126.1 181.3C126.5 181.6 127 181.8 127.4 181.8C127.9 181.8 128.4 181.6 128.7 181.3C129 180.9 129.2 180.4 129.2 179.9V175.5H130.6V179.9C130.6 180.5 130.5 181.1 130.2 181.6C129.9 182.1 129.5 182.5 129.1 182.7C128.6 183 128 183.1 127.4 183.1C126.8 183.1 126.2 183 125.6 182.7C125.1 182.5 124.7 182.1 124.5 181.6C124.2 181.1 124.1 180.5 124.1 179.9V175.5H125.5V179.9C125.6 180.4 125.8 180.9 126.1 181.3Z" fill="white"/>
<path d="M136 176.9C135.7 176.8 135.3 176.7 134.9 176.7C134.6 176.7 134.3 176.8 134.1 176.9C133.9 177 133.8 177.2 133.8 177.4C133.8 177.6 133.9 177.8 134 177.9C134.1 178 134.3 178.2 134.5 178.2C134.8 178.3 135.1 178.4 135.4 178.5C135.8 178.6 136.2 178.8 136.6 178.9C136.9 179.1 137.2 179.3 137.4 179.6C137.6 179.9 137.8 180.3 137.7 180.8C137.7 181.2 137.6 181.7 137.3 182C137 182.3 136.7 182.6 136.3 182.8C135.8 183 135.3 183.1 134.8 183.1C134.2 183.1 133.6 183 133.1 182.8C132.6 182.6 132.1 182.3 131.6 181.9L132.2 180.7C132.6 181 133 181.3 133.5 181.5C133.9 181.7 134.4 181.8 134.8 181.8C135.1 181.8 135.5 181.7 135.7 181.6C136.1 181.4 136.1 180.9 135.9 180.5L135.8 180.4C135.6 180.3 135.5 180.1 135.3 180.1C135.1 180 134.8 179.9 134.4 179.8C134 179.7 133.6 179.5 133.2 179.4C132.9 179.3 132.6 179 132.4 178.8C132.2 178.5 132 178.1 132.1 177.7C132.1 177.3 132.2 176.9 132.4 176.6C132.7 176.3 133 176 133.4 175.8C133.9 175.6 134.4 175.5 134.9 175.5C135.4 175.5 135.9 175.6 136.3 175.7C136.7 175.8 137.2 176 137.6 176.3L137 177.5C136.8 177.2 136.4 177 136 176.9Z" fill="white"/>
<path d="M139.2 175.5H140.6V178.7H144.3V175.5H145.7V183H144.3V180H140.6V183H139.2V175.5Z" fill="white"/>
<path d="M148.4 181.7C148.5 181.8 148.6 182 148.6 182.3C148.6 182.5 148.5 182.7 148.4 182.9C148.3 183 148.1 183.1 147.9 183.1C147.7 183.1 147.5 183 147.4 182.9C147.3 182.7 147.2 182.5 147.2 182.3C147.2 182.1 147.3 181.9 147.4 181.7C147.5 181.6 147.7 181.5 147.9 181.5C148.1 181.5 148.3 181.6 148.4 181.7Z" fill="white"/>
<path d="M152.4 178.4C152 178.4 151.6 178.6 151.3 178.9C151 179.2 150.9 179.7 150.9 180.1C150.9 180.6 151 181 151.3 181.3C151.6 181.6 152 181.8 152.4 181.8C153 181.8 153.6 181.6 153.9 181.1L154.8 181.8C154.5 182.2 154.2 182.5 153.8 182.7C153.3 182.9 152.8 183 152.3 183C151.8 183 151.3 182.9 150.8 182.6C150.4 182.4 150 182 149.8 181.6C149.3 180.7 149.3 179.5 149.8 178.6C150 178.2 150.4 177.8 150.8 177.6C151.3 177.4 151.8 177.2 152.3 177.2C152.8 177.2 153.3 177.3 153.7 177.5C154.1 177.7 154.4 177.9 154.7 178.3L153.9 179.1C153.6 178.7 153 178.4 152.4 178.4Z" fill="white"/>
<path d="M159.9 177.6C160.3 177.8 160.7 178.2 161 178.6C161.3 179.1 161.4 179.6 161.4 180.1C161.4 180.6 161.3 181.2 161 181.6C160.7 182 160.4 182.4 159.9 182.6C159.4 182.8 158.9 183 158.3 183C157.7 183 157.2 182.9 156.7 182.6C156.3 182.4 155.9 182 155.6 181.6C155.3 181.1 155.2 180.6 155.2 180.1C155.2 179.6 155.3 179 155.6 178.6C155.9 178.2 156.2 177.8 156.7 177.6C157.2 177.3 157.7 177.2 158.3 177.2C158.9 177.2 159.4 177.3 159.9 177.6ZM157.2 178.9C156.6 179.6 156.6 180.7 157.2 181.4C157.5 181.7 157.9 181.9 158.4 181.9C158.8 181.9 159.3 181.7 159.6 181.4C160.2 180.7 160.2 179.6 159.6 178.9C159.3 178.6 158.9 178.4 158.4 178.4C157.9 178.4 157.5 178.5 157.2 178.9Z" fill="white"/>
<path d="M171.6 177.8C172 178.2 172.2 178.8 172.2 179.4V183H170.8V179.8C170.8 179.4 170.7 179.1 170.5 178.8C170.3 178.6 169.9 178.4 169.6 178.4C169.2 178.4 168.8 178.6 168.5 178.9C168.2 179.2 168.1 179.6 168.1 180.1V182.9H166.7V179.8C166.7 179.4 166.6 179.1 166.4 178.8C166.2 178.6 165.8 178.4 165.5 178.4C165.1 178.4 164.7 178.6 164.4 178.9C164.1 179.2 164 179.7 164.1 180.1V182.9H162.7V177.2H164.1V178.3C164.8 177.2 166.3 176.9 167.4 177.5C167.7 177.7 168 178.1 168.1 178.5C168.4 177.6 169.3 177.1 170.2 177.1C170.7 177.1 171.2 177.4 171.6 177.8Z" fill="white"/>
<path d="M114.888 203V202.112H110.964C113.196 200.348 114.852 198.86 114.852 197.228C114.852 195.632 113.496 194.876 112.164 194.876C111.036 194.876 109.992 195.32 109.38 196.136L109.992 196.772C110.46 196.172 111.204 195.764 112.164 195.764C112.992 195.764 113.844 196.196 113.844 197.228C113.844 198.608 112.272 199.94 109.392 202.196V203H114.888ZM119.471 203.144C121.655 203.144 122.531 200.948 122.531 199.004C122.531 197.048 121.655 194.876 119.471 194.876C117.275 194.876 116.411 197.048 116.411 199.004C116.411 200.948 117.275 203.144 119.471 203.144ZM119.471 202.256C117.947 202.256 117.431 200.6 117.431 199.004C117.431 197.408 117.947 195.764 119.471 195.764C120.995 195.764 121.511 197.408 121.511 199.004C121.511 200.6 120.995 202.256 119.471 202.256ZM129.29 203V202.112H125.366C127.598 200.348 129.254 198.86 129.254 197.228C129.254 195.632 127.898 194.876 126.566 194.876C125.438 194.876 124.394 195.32 123.782 196.136L124.394 196.772C124.862 196.172 125.606 195.764 126.566 195.764C127.394 195.764 128.246 196.196 128.246 197.228C128.246 198.608 126.674 199.94 123.794 202.196V203H129.29ZM136.345 203V202.112H132.421C134.653 200.348 136.309 198.86 136.309 197.228C136.309 195.632 134.953 194.876 133.621 194.876C132.493 194.876 131.449 195.32 130.837 196.136L131.449 196.772C131.917 196.172 132.661 195.764 133.621 195.764C134.449 195.764 135.301 196.196 135.301 197.228C135.301 198.608 133.729 199.94 130.849 202.196V203H136.345Z" fill="white"/>
<path d="M114.888 203V203.25H115.138V203H114.888ZM114.888 202.112H115.138V201.862H114.888V202.112ZM110.964 202.112L110.809 201.916L110.245 202.362H110.964V202.112ZM109.38 196.136L109.18 195.986L109.053 196.156L109.2 196.309L109.38 196.136ZM109.992 196.772L109.812 196.945L110.012 197.153L110.189 196.926L109.992 196.772ZM109.392 202.196L109.238 201.999L109.142 202.074V202.196H109.392ZM109.392 203H109.142V203.25H109.392V203ZM115.138 203V202.112H114.638V203H115.138ZM114.888 201.862H110.964V202.362H114.888V201.862ZM111.119 202.308C112.235 201.427 113.224 200.601 113.934 199.785C114.643 198.969 115.102 198.132 115.102 197.228H114.602C114.602 197.956 114.233 198.679 113.557 199.456C112.881 200.233 111.926 201.033 110.809 201.916L111.119 202.308ZM115.102 197.228C115.102 196.35 114.725 195.69 114.16 195.255C113.602 194.827 112.874 194.626 112.164 194.626V195.126C112.787 195.126 113.402 195.303 113.855 195.652C114.301 195.994 114.602 196.51 114.602 197.228H115.102ZM112.164 194.626C110.975 194.626 109.849 195.094 109.18 195.986L109.58 196.286C110.135 195.546 111.097 195.126 112.164 195.126V194.626ZM109.2 196.309L109.812 196.945L110.172 196.599L109.56 195.963L109.2 196.309ZM110.189 196.926C110.609 196.387 111.28 196.014 112.164 196.014V195.514C111.128 195.514 110.311 195.957 109.795 196.618L110.189 196.926ZM112.164 196.014C112.539 196.014 112.902 196.113 113.165 196.309C113.418 196.499 113.594 196.791 113.594 197.228H114.094C114.094 196.633 113.844 196.193 113.464 195.909C113.094 195.631 112.617 195.514 112.164 195.514V196.014ZM113.594 197.228C113.594 197.818 113.259 198.435 112.517 199.211C111.779 199.983 110.681 200.869 109.238 201.999L109.546 202.393C110.983 201.267 112.111 200.359 112.879 199.556C113.643 198.757 114.094 198.018 114.094 197.228H113.594ZM109.142 202.196V203H109.642V202.196H109.142ZM109.392 203.25H114.888V202.75H109.392V203.25ZM119.471 203.394C120.663 203.394 121.502 202.788 122.032 201.935C122.556 201.092 122.781 200.008 122.781 199.004H122.281C122.281 199.944 122.068 200.93 121.607 201.671C121.153 202.402 120.462 202.894 119.471 202.894V203.394ZM122.781 199.004C122.781 197.994 122.556 196.912 122.032 196.074C121.502 195.225 120.662 194.626 119.471 194.626V195.126C120.464 195.126 121.154 195.613 121.608 196.339C122.068 197.076 122.281 198.058 122.281 199.004H122.781ZM119.471 194.626C118.274 194.626 117.434 195.225 116.905 196.074C116.383 196.913 116.161 197.995 116.161 199.004H116.661C116.661 198.057 116.871 197.075 117.33 196.339C117.781 195.613 118.472 195.126 119.471 195.126V194.626ZM116.161 199.004C116.161 200.007 116.383 201.092 116.905 201.935C117.433 202.788 118.273 203.394 119.471 203.394V202.894C118.473 202.894 117.782 202.402 117.33 201.671C116.871 200.93 116.661 199.945 116.661 199.004H116.161ZM119.471 202.006C118.823 202.006 118.388 201.664 118.101 201.113C117.808 200.549 117.681 199.782 117.681 199.004H117.181C117.181 199.822 117.312 200.681 117.658 201.344C118.01 202.02 118.595 202.506 119.471 202.506V202.006ZM117.681 199.004C117.681 198.226 117.808 197.462 118.101 196.901C118.387 196.354 118.822 196.014 119.471 196.014V195.514C118.596 195.514 118.01 195.996 117.658 196.67C117.312 197.33 117.181 198.186 117.181 199.004H117.681ZM119.471 196.014C120.12 196.014 120.554 196.354 120.841 196.901C121.134 197.462 121.261 198.226 121.261 199.004H121.761C121.761 198.186 121.63 197.33 121.284 196.67C120.931 195.996 120.346 195.514 119.471 195.514V196.014ZM121.261 199.004C121.261 199.782 121.134 200.549 120.841 201.113C120.554 201.664 120.119 202.006 119.471 202.006V202.506C120.347 202.506 120.932 202.02 121.284 201.344C121.63 200.681 121.761 199.822 121.761 199.004H121.261ZM129.29 203V203.25H129.54V203H129.29ZM129.29 202.112H129.54V201.862H129.29V202.112ZM125.366 202.112L125.211 201.916L124.647 202.362H125.366V202.112ZM123.782 196.136L123.582 195.986L123.455 196.156L123.602 196.309L123.782 196.136ZM124.394 196.772L124.214 196.945L124.414 197.153L124.592 196.926L124.394 196.772ZM123.794 202.196L123.64 201.999L123.544 202.074V202.196H123.794ZM123.794 203H123.544V203.25H123.794V203ZM129.54 203V202.112H129.04V203H129.54ZM129.29 201.862H125.366V202.362H129.29V201.862ZM125.521 202.308C126.637 201.427 127.626 200.601 128.336 199.785C129.045 198.969 129.504 198.132 129.504 197.228H129.004C129.004 197.956 128.636 198.679 127.959 199.456C127.283 200.233 126.328 201.033 125.211 201.916L125.521 202.308ZM129.504 197.228C129.504 196.35 129.127 195.69 128.562 195.255C128.005 194.827 127.276 194.626 126.566 194.626V195.126C127.189 195.126 127.804 195.303 128.258 195.652C128.704 195.994 129.004 196.51 129.004 197.228H129.504ZM126.566 194.626C125.377 194.626 124.251 195.094 123.582 195.986L123.982 196.286C124.538 195.546 125.5 195.126 126.566 195.126V194.626ZM123.602 196.309L124.214 196.945L124.575 196.599L123.963 195.963L123.602 196.309ZM124.592 196.926C125.012 196.387 125.683 196.014 126.566 196.014V195.514C125.53 195.514 124.713 195.957 124.197 196.618L124.592 196.926ZM126.566 196.014C126.942 196.014 127.305 196.113 127.567 196.309C127.82 196.499 127.996 196.791 127.996 197.228H128.496C128.496 196.633 128.246 196.193 127.867 195.909C127.496 195.631 127.019 195.514 126.566 195.514V196.014ZM127.996 197.228C127.996 197.818 127.661 198.435 126.92 199.211C126.181 199.983 125.083 200.869 123.64 201.999L123.949 202.393C125.385 201.267 126.513 200.359 127.281 199.556C128.046 198.757 128.496 198.018 128.496 197.228H127.996ZM123.544 202.196V203H124.044V202.196H123.544ZM123.794 203.25H129.29V202.75H123.794V203.25ZM136.345 203V203.25H136.595V203H136.345ZM136.345 202.112H136.595V201.862H136.345V202.112ZM132.421 202.112L132.266 201.916L131.702 202.362H132.421V202.112ZM130.837 196.136L130.637 195.986L130.51 196.156L130.657 196.309L130.837 196.136ZM131.449 196.772L131.269 196.945L131.469 197.153L131.646 196.926L131.449 196.772ZM130.849 202.196L130.695 201.999L130.599 202.074V202.196H130.849ZM130.849 203H130.599V203.25H130.849V203ZM136.595 203V202.112H136.095V203H136.595ZM136.345 201.862H132.421V202.362H136.345V201.862ZM132.576 202.308C133.692 201.427 134.681 200.601 135.391 199.785C136.1 198.969 136.559 198.132 136.559 197.228H136.059C136.059 197.956 135.69 198.679 135.014 199.456C134.338 200.233 133.383 201.033 132.266 201.916L132.576 202.308ZM136.559 197.228C136.559 196.35 136.182 195.69 135.617 195.255C135.059 194.827 134.331 194.626 133.621 194.626V195.126C134.244 195.126 134.859 195.303 135.312 195.652C135.758 195.994 136.059 196.51 136.059 197.228H136.559ZM133.621 194.626C132.432 194.626 131.306 195.094 130.637 195.986L131.037 196.286C131.592 195.546 132.554 195.126 133.621 195.126V194.626ZM130.657 196.309L131.269 196.945L131.629 196.599L131.017 195.963L130.657 196.309ZM131.646 196.926C132.066 196.387 132.737 196.014 133.621 196.014V195.514C132.585 195.514 131.768 195.957 131.252 196.618L131.646 196.926ZM133.621 196.014C133.996 196.014 134.359 196.113 134.622 196.309C134.875 196.499 135.051 196.791 135.051 197.228H135.551C135.551 196.633 135.301 196.193 134.922 195.909C134.551 195.631 134.074 195.514 133.621 195.514V196.014ZM135.051 197.228C135.051 197.818 134.716 198.435 133.974 199.211C133.236 199.983 132.138 200.869 130.695 201.999L131.003 202.393C132.44 201.267 133.568 200.359 134.336 199.556C135.1 198.757 135.551 198.018 135.551 197.228H135.051ZM130.599 202.196V203H131.099V202.196H130.599ZM130.849 203.25H136.345V202.75H130.849V203.25Z" fill="white"/>
<path d="M87 199.5H102" stroke="white"/>
<path d="M144 199.5H159" stroke="white"/>
</svg>
