<svg width="223" height="197" viewBox="0 0 223 197" fill="none" xmlns="http://www.w3.org/2000/svg">
<path d="M103.56 125V115.512H106.952V114.328H98.8558V115.512H102.232V125H103.56ZM113.143 125.192C116.295 125.192 118.455 122.824 118.455 119.672C118.455 116.52 116.295 114.152 113.143 114.152C109.991 114.152 107.847 116.52 107.847 119.672C107.847 122.824 109.991 125.192 113.143 125.192ZM113.143 124.008C110.743 124.008 109.223 122.152 109.223 119.672C109.223 117.176 110.743 115.336 113.143 115.336C115.527 115.336 117.079 117.176 117.079 119.672C117.079 122.152 115.527 124.008 113.143 124.008ZM121.842 125V120.76H124.802C126.93 120.76 128.146 119.288 128.146 117.544C128.146 115.8 126.946 114.328 124.802 114.328H120.514V125H121.842ZM124.642 119.576H121.842V115.512H124.642C125.906 115.512 126.77 116.344 126.77 117.544C126.77 118.744 125.906 119.576 124.642 119.576ZM102.845 140.192C105.725 140.192 106.781 138.592 106.781 137.056C106.781 133.072 100.461 134.448 100.461 132.048C100.461 131.04 101.389 130.352 102.653 130.352C103.821 130.352 104.941 130.736 105.741 131.632L106.541 130.656C105.645 129.712 104.381 129.152 102.765 129.152C100.653 129.152 99.0846 130.368 99.0846 132.128C99.0846 135.936 105.405 134.4 105.405 137.152C105.405 137.984 104.797 139.008 102.893 139.008C101.389 139.008 100.237 138.272 99.5486 137.472L98.7486 138.496C99.6286 139.488 101.005 140.192 102.845 140.192ZM115.756 140V138.816H110.092V135.136H115.644V133.952H110.092V130.512H115.756V129.328H108.764V140H115.756ZM122.737 140.192C125.889 140.192 128.049 137.824 128.049 134.672C128.049 131.52 125.889 129.152 122.737 129.152C119.585 129.152 117.441 131.52 117.441 134.672C117.441 137.824 119.585 140.192 122.737 140.192ZM122.737 139.008C120.337 139.008 118.817 137.152 118.817 134.672C118.817 132.176 120.337 130.336 122.737 130.336C125.121 130.336 126.673 132.176 126.673 134.672C126.673 137.152 125.121 139.008 122.737 139.008ZM81.7962 155.192C83.6842 155.192 84.9642 154.296 85.8602 153.064L84.7402 152.456C84.1322 153.352 83.0122 154.008 81.7962 154.008C79.4602 154.008 77.6842 152.2 77.6842 149.672C77.6842 147.112 79.4602 145.336 81.7962 145.336C83.0122 145.336 84.1322 145.976 84.7402 146.888L85.8442 146.264C84.9962 145.048 83.6842 144.152 81.7962 144.152C78.7242 144.152 76.3082 146.392 76.3082 149.672C76.3082 152.952 78.7242 155.192 81.7962 155.192ZM92.4167 155.192C95.5687 155.192 97.7287 152.824 97.7287 149.672C97.7287 146.52 95.5687 144.152 92.4167 144.152C89.2647 144.152 87.1207 146.52 87.1207 149.672C87.1207 152.824 89.2647 155.192 92.4167 155.192ZM92.4167 154.008C90.0167 154.008 88.4967 152.152 88.4967 149.672C88.4967 147.176 90.0167 145.336 92.4167 145.336C94.8007 145.336 96.3527 147.176 96.3527 149.672C96.3527 152.152 94.8007 154.008 92.4167 154.008ZM110.235 155V144.328H108.331L105.019 152.552L101.691 144.328H99.7871V155H101.115V146.024L104.747 155H105.291L108.907 146.024V155H110.235ZM114.053 155V150.76H117.013C119.141 150.76 120.357 149.288 120.357 147.544C120.357 145.8 119.157 144.328 117.013 144.328H112.725V155H114.053ZM116.853 149.576H114.053V145.512H116.853C118.117 145.512 118.981 146.344 118.981 147.544C118.981 148.744 118.117 149.576 116.853 149.576ZM130.017 155L125.729 144.328H124.081L119.777 155H121.297L122.241 152.616H127.553L128.497 155H130.017ZM127.169 151.448H122.641L124.897 145.688L127.169 151.448ZM140.244 155V144.328H138.916V152.664L132.772 144.328H131.412V155H132.74V146.488L138.964 155H140.244ZM147.172 155V150.488L151.364 144.328H149.812L146.5 149.288L143.188 144.328H141.636L145.844 150.488V155H147.172Z" fill="white"/>
<path d="M103.56 125V125.25H103.81V125H103.56ZM103.56 115.512V115.262H103.31V115.512H103.56ZM106.952 115.512V115.762H107.202V115.512H106.952ZM106.952 114.328H107.202V114.078H106.952V114.328ZM98.8557 114.328V114.078H98.6057V114.328H98.8557ZM98.8557 115.512H98.6057V115.762H98.8557V115.512ZM102.232 115.512H102.482V115.262H102.232V115.512ZM102.232 125H101.982V125.25H102.232V125ZM103.81 125V115.512H103.31V125H103.81ZM103.56 115.762H106.952V115.262H103.56V115.762ZM107.202 115.512V114.328H106.702V115.512H107.202ZM106.952 114.078H98.8557V114.578H106.952V114.078ZM98.6057 114.328V115.512H99.1057V114.328H98.6057ZM98.8557 115.762H102.232V115.262H98.8557V115.762ZM101.982 115.512V125H102.482V115.512H101.982ZM102.232 125.25H103.56V124.75H102.232V125.25ZM113.143 125.442C116.446 125.442 118.705 122.949 118.705 119.672H118.205C118.205 122.699 116.145 124.942 113.143 124.942V125.442ZM118.705 119.672C118.705 116.395 116.446 113.902 113.143 113.902V114.402C116.145 114.402 118.205 116.645 118.205 119.672H118.705ZM113.143 113.902C109.84 113.902 107.597 116.396 107.597 119.672H108.097C108.097 116.644 110.143 114.402 113.143 114.402V113.902ZM107.597 119.672C107.597 122.948 109.84 125.442 113.143 125.442V124.942C110.143 124.942 108.097 122.7 108.097 119.672H107.597ZM113.143 123.758C112.012 123.758 111.102 123.323 110.471 122.605C109.838 121.884 109.473 120.862 109.473 119.672H108.973C108.973 120.962 109.369 122.108 110.095 122.935C110.825 123.765 111.874 124.258 113.143 124.258V123.758ZM109.473 119.672C109.473 118.474 109.838 117.452 110.471 116.733C111.101 116.018 112.012 115.586 113.143 115.586V115.086C111.875 115.086 110.825 115.574 110.096 116.403C109.369 117.228 108.973 118.374 108.973 119.672H109.473ZM113.143 115.586C114.267 115.586 115.182 116.018 115.818 116.734C116.457 117.453 116.829 118.475 116.829 119.672H117.329C117.329 118.373 116.925 117.227 116.192 116.402C115.457 115.574 114.404 115.086 113.143 115.086V115.586ZM116.829 119.672C116.829 120.861 116.458 121.883 115.818 122.604C115.181 123.323 114.266 123.758 113.143 123.758V124.258C114.405 124.258 115.457 123.765 116.192 122.936C116.925 122.109 117.329 120.963 117.329 119.672H116.829ZM121.842 125V125.25H122.092V125H121.842ZM121.842 120.76V120.51H121.592V120.76H121.842ZM120.514 114.328V114.078H120.264V114.328H120.514ZM120.514 125H120.264V125.25H120.514V125ZM121.842 119.576H121.592V119.826H121.842V119.576ZM121.842 115.512V115.262H121.592V115.512H121.842ZM122.092 125V120.76H121.592V125H122.092ZM121.842 121.01H124.802V120.51H121.842V121.01ZM124.802 121.01C125.926 121.01 126.829 120.62 127.451 119.98C128.071 119.343 128.396 118.474 128.396 117.544H127.896C127.896 118.358 127.612 119.097 127.092 119.632C126.574 120.164 125.805 120.51 124.802 120.51V121.01ZM128.396 117.544C128.396 116.615 128.075 115.746 127.457 115.108C126.837 114.468 125.934 114.078 124.802 114.078V114.578C125.814 114.578 126.582 114.924 127.098 115.456C127.616 115.99 127.896 116.729 127.896 117.544H128.396ZM124.802 114.078H120.514V114.578H124.802V114.078ZM120.264 114.328V125H120.764V114.328H120.264ZM120.514 125.25H121.842V124.75H120.514V125.25ZM124.642 119.326H121.842V119.826H124.642V119.326ZM122.092 119.576V115.512H121.592V119.576H122.092ZM121.842 115.762H124.642V115.262H121.842V115.762ZM124.642 115.762C125.218 115.762 125.685 115.951 126.007 116.259C126.327 116.566 126.52 117.006 126.52 117.544H127.02C127.02 116.882 126.78 116.306 126.352 115.897C125.926 115.489 125.329 115.262 124.642 115.262V115.762ZM126.52 117.544C126.52 118.082 126.327 118.522 126.007 118.829C125.685 119.137 125.218 119.326 124.642 119.326V119.826C125.329 119.826 125.926 119.599 126.352 119.191C126.78 118.782 127.02 118.206 127.02 117.544H126.52ZM105.741 131.632L105.554 131.799L105.749 132.016L105.934 131.79L105.741 131.632ZM106.541 130.656L106.734 130.814L106.874 130.644L106.722 130.484L106.541 130.656ZM99.5486 137.472L99.7382 137.309L99.5393 137.078L99.3516 137.318L99.5486 137.472ZM98.7486 138.496L98.5516 138.342L98.4234 138.506L98.5616 138.662L98.7486 138.496ZM102.845 140.442C104.331 140.442 105.383 140.028 106.065 139.381C106.746 138.735 107.031 137.881 107.031 137.056H106.531C106.531 137.767 106.287 138.481 105.721 139.019C105.155 139.556 104.238 139.942 102.845 139.942V140.442ZM107.031 137.056C107.031 135.98 106.598 135.248 105.948 134.734C105.314 134.232 104.482 133.945 103.69 133.718C102.876 133.484 102.122 133.316 101.552 133.055C101.272 132.927 101.061 132.787 100.921 132.625C100.787 132.47 100.711 132.286 100.711 132.048H100.211C100.211 132.41 100.332 132.708 100.543 132.952C100.749 133.19 101.032 133.367 101.344 133.51C101.959 133.791 102.785 133.978 103.552 134.198C104.34 134.425 105.087 134.691 105.638 135.126C106.173 135.55 106.531 136.14 106.531 137.056H107.031ZM100.711 132.048C100.711 131.629 100.901 131.276 101.234 131.021C101.572 130.762 102.064 130.602 102.653 130.602V130.102C101.978 130.102 101.373 130.286 100.931 130.623C100.484 130.964 100.211 131.459 100.211 132.048H100.711ZM102.653 130.602C103.766 130.602 104.812 130.967 105.554 131.799L105.927 131.465C105.069 130.505 103.875 130.102 102.653 130.102V130.602ZM105.934 131.79L106.734 130.814L106.347 130.498L105.547 131.474L105.934 131.79ZM106.722 130.484C105.775 129.486 104.443 128.902 102.765 128.902V129.402C104.318 129.402 105.515 129.938 106.359 130.828L106.722 130.484ZM102.765 128.902C100.57 128.902 98.8346 130.18 98.8346 132.128H99.3346C99.3346 130.556 100.735 129.402 102.765 129.402V128.902ZM98.8346 132.128C98.8346 133.166 99.2725 133.856 99.9243 134.334C100.558 134.799 101.39 135.06 102.178 135.277C102.987 135.5 103.74 135.677 104.303 135.964C104.58 136.105 104.791 136.265 104.934 136.453C105.072 136.637 105.155 136.86 105.155 137.152H105.655C105.655 136.756 105.539 136.425 105.333 136.152C105.129 135.882 104.847 135.68 104.531 135.519C103.909 135.201 103.082 135.008 102.311 134.795C101.519 134.576 100.771 134.335 100.22 133.931C99.6868 133.54 99.3346 132.994 99.3346 132.128H98.8346ZM105.155 137.152C105.155 137.508 105.025 137.902 104.693 138.208C104.361 138.515 103.8 138.758 102.893 138.758V139.258C103.889 139.258 104.584 138.989 105.032 138.576C105.48 138.162 105.655 137.628 105.655 137.152H105.155ZM102.893 138.758C101.475 138.758 100.388 138.065 99.7382 137.309L99.3591 137.635C100.085 138.479 101.303 139.258 102.893 139.258V138.758ZM99.3516 137.318L98.5516 138.342L98.9456 138.65L99.7456 137.626L99.3516 137.318ZM98.5616 138.662C99.4913 139.71 100.937 140.442 102.845 140.442V139.942C101.073 139.942 99.766 139.266 98.9356 138.33L98.5616 138.662ZM115.756 140V140.25H116.006V140H115.756ZM115.756 138.816H116.006V138.566H115.756V138.816ZM110.092 138.816H109.842V139.066H110.092V138.816ZM110.092 135.136V134.886H109.842V135.136H110.092ZM115.644 135.136V135.386H115.894V135.136H115.644ZM115.644 133.952H115.894V133.702H115.644V133.952ZM110.092 133.952H109.842V134.202H110.092V133.952ZM110.092 130.512V130.262H109.842V130.512H110.092ZM115.756 130.512V130.762H116.006V130.512H115.756ZM115.756 129.328H116.006V129.078H115.756V129.328ZM108.764 129.328V129.078H108.514V129.328H108.764ZM108.764 140H108.514V140.25H108.764V140ZM116.006 140V138.816H115.506V140H116.006ZM115.756 138.566H110.092V139.066H115.756V138.566ZM110.342 138.816V135.136H109.842V138.816H110.342ZM110.092 135.386H115.644V134.886H110.092V135.386ZM115.894 135.136V133.952H115.394V135.136H115.894ZM115.644 133.702H110.092V134.202H115.644V133.702ZM110.342 133.952V130.512H109.842V133.952H110.342ZM110.092 130.762H115.756V130.262H110.092V130.762ZM116.006 130.512V129.328H115.506V130.512H116.006ZM115.756 129.078H108.764V129.578H115.756V129.078ZM108.514 129.328V140H109.014V129.328H108.514ZM108.764 140.25H115.756V139.75H108.764V140.25ZM122.737 140.442C126.04 140.442 128.299 137.949 128.299 134.672H127.799C127.799 137.699 125.738 139.942 122.737 139.942V140.442ZM128.299 134.672C128.299 131.395 126.04 128.902 122.737 128.902V129.402C125.738 129.402 127.799 131.645 127.799 134.672H128.299ZM122.737 128.902C119.433 128.902 117.191 131.396 117.191 134.672H117.691C117.691 131.644 119.737 129.402 122.737 129.402V128.902ZM117.191 134.672C117.191 137.948 119.433 140.442 122.737 140.442V139.942C119.737 139.942 117.691 137.7 117.691 134.672H117.191ZM122.737 138.758C121.606 138.758 120.695 138.323 120.065 137.605C119.431 136.884 119.067 135.862 119.067 134.672H118.567C118.567 135.962 118.963 137.108 119.689 137.935C120.419 138.765 121.468 139.258 122.737 139.258V138.758ZM119.067 134.672C119.067 133.474 119.432 132.452 120.065 131.733C120.695 131.018 121.605 130.586 122.737 130.586V130.086C121.469 130.086 120.419 130.574 119.689 131.403C118.962 132.228 118.567 133.374 118.567 134.672H119.067ZM122.737 130.586C123.86 130.586 124.775 131.018 125.412 131.734C126.051 132.453 126.423 133.475 126.423 134.672H126.923C126.923 133.373 126.519 132.227 125.786 131.402C125.051 130.574 123.998 130.086 122.737 130.086V130.586ZM126.423 134.672C126.423 135.861 126.051 136.883 125.412 137.604C124.775 138.323 123.86 138.758 122.737 138.758V139.258C123.998 139.258 125.051 138.765 125.786 137.936C126.519 137.109 126.923 135.963 126.923 134.672H126.423ZM85.8602 153.064L86.0624 153.211L86.2301 152.98L85.9795 152.844L85.8602 153.064ZM84.7402 152.456L84.8595 152.236L84.6605 152.128L84.5333 152.316L84.7402 152.456ZM84.7402 146.888L84.5322 147.027L84.661 147.22L84.8632 147.106L84.7402 146.888ZM85.8442 146.264L85.9672 146.482L86.2064 146.346L86.0492 146.121L85.8442 146.264ZM81.7962 155.442C83.7799 155.442 85.1294 154.494 86.0624 153.211L85.658 152.917C84.799 154.098 83.5885 154.942 81.7962 154.942V155.442ZM85.9795 152.844L84.8595 152.236L84.6209 152.676L85.7409 153.284L85.9795 152.844ZM84.5333 152.316C83.9696 153.146 82.9254 153.758 81.7962 153.758V154.258C83.0989 154.258 84.2948 153.558 84.9471 152.596L84.5333 152.316ZM81.7962 153.758C79.6082 153.758 77.9342 152.072 77.9342 149.672H77.4342C77.4342 152.328 79.3122 154.258 81.7962 154.258V153.758ZM77.9342 149.672C77.9342 147.241 79.607 145.586 81.7962 145.586V145.086C79.3134 145.086 77.4342 146.983 77.4342 149.672H77.9342ZM81.7962 145.586C82.9274 145.586 83.9699 146.183 84.5322 147.027L84.9482 146.749C84.2945 145.769 83.097 145.086 81.7962 145.086V145.586ZM84.8632 147.106L85.9672 146.482L85.7212 146.046L84.6172 146.67L84.8632 147.106ZM86.0492 146.121C85.1612 144.848 83.777 143.902 81.7962 143.902V144.402C83.5913 144.402 84.8311 145.248 85.6391 146.407L86.0492 146.121ZM81.7962 143.902C78.5905 143.902 76.0582 146.25 76.0582 149.672H76.5582C76.5582 146.534 78.8579 144.402 81.7962 144.402V143.902ZM76.0582 149.672C76.0582 153.094 78.5905 155.442 81.7962 155.442V154.942C78.8579 154.942 76.5582 152.81 76.5582 149.672H76.0582ZM92.4167 155.442C95.7193 155.442 97.9787 152.949 97.9787 149.672H97.4787C97.4787 152.699 95.418 154.942 92.4167 154.942V155.442ZM97.9787 149.672C97.9787 146.395 95.7193 143.902 92.4167 143.902V144.402C95.418 144.402 97.4787 146.645 97.4787 149.672H97.9787ZM92.4167 143.902C89.113 143.902 86.8707 146.396 86.8707 149.672H87.3707C87.3707 146.644 89.4163 144.402 92.4167 144.402V143.902ZM86.8707 149.672C86.8707 152.948 89.113 155.442 92.4167 155.442V154.942C89.4163 154.942 87.3707 152.7 87.3707 149.672H86.8707ZM92.4167 153.758C91.2857 153.758 90.3752 153.323 89.7445 152.605C89.1111 151.884 88.7467 150.862 88.7467 149.672H88.2467C88.2467 150.962 88.6423 152.108 89.3689 152.935C90.0982 153.765 91.1476 154.258 92.4167 154.258V153.758ZM88.7467 149.672C88.7467 148.474 89.1113 147.452 89.7443 146.733C90.3746 146.018 91.2851 145.586 92.4167 145.586V145.086C91.1483 145.086 90.0988 145.574 89.3691 146.403C88.6421 147.228 88.2467 148.374 88.2467 149.672H88.7467ZM92.4167 145.586C93.5401 145.586 94.4551 146.018 95.0918 146.734C95.7309 147.453 96.1027 148.475 96.1027 149.672H96.6027C96.6027 148.373 96.1985 147.227 95.4656 146.402C94.7303 145.574 93.6773 145.086 92.4167 145.086V145.586ZM96.1027 149.672C96.1027 150.861 95.7311 151.883 95.0916 152.604C94.4545 153.323 93.5394 153.758 92.4167 153.758V154.258C93.678 154.258 94.7308 153.765 95.4658 152.936C96.1983 152.109 96.6027 150.963 96.6027 149.672H96.1027ZM110.235 155V155.25H110.485V155H110.235ZM110.235 144.328H110.485V144.078H110.235V144.328ZM108.331 144.328V144.078H108.162L108.099 144.235L108.331 144.328ZM105.019 152.552L104.787 152.646L105.02 153.22L105.251 152.645L105.019 152.552ZM101.691 144.328L101.923 144.234L101.86 144.078H101.691V144.328ZM99.7871 144.328V144.078H99.5371V144.328H99.7871ZM99.7871 155H99.5371V155.25H99.7871V155ZM101.115 155V155.25H101.365V155H101.115ZM101.115 146.024L101.347 145.93L100.865 146.024H101.115ZM104.747 155L104.515 155.094L104.579 155.25H104.747V155ZM105.291 155V155.25H105.46L105.523 155.093L105.291 155ZM108.907 146.024H109.157L108.675 145.931L108.907 146.024ZM108.907 155H108.657V155.25H108.907V155ZM110.485 155V144.328H109.985V155H110.485ZM110.235 144.078H108.331V144.578H110.235V144.078ZM108.099 144.235L104.787 152.459L105.251 152.645L108.563 144.421L108.099 144.235ZM105.251 152.458L101.923 144.234L101.459 144.422L104.787 152.646L105.251 152.458ZM101.691 144.078H99.7871V144.578H101.691V144.078ZM99.5371 144.328V155H100.037V144.328H99.5371ZM99.7871 155.25H101.115V154.75H99.7871V155.25ZM101.365 155V146.024H100.865V155H101.365ZM100.883 146.118L104.515 155.094L104.979 154.906L101.347 145.93L100.883 146.118ZM104.747 155.25H105.291V154.75H104.747V155.25ZM105.523 155.093L109.139 146.117L108.675 145.931L105.059 154.907L105.523 155.093ZM108.657 146.024V155H109.157V146.024H108.657ZM108.907 155.25H110.235V154.75H108.907V155.25ZM114.053 155V155.25H114.303V155H114.053ZM114.053 150.76V150.51H113.803V150.76H114.053ZM112.725 144.328V144.078H112.475V144.328H112.725ZM112.725 155H112.475V155.25H112.725V155ZM114.053 149.576H113.803V149.826H114.053V149.576ZM114.053 145.512V145.262H113.803V145.512H114.053ZM114.303 155V150.76H113.803V155H114.303ZM114.053 151.01H117.013V150.51H114.053V151.01ZM117.013 151.01C118.137 151.01 119.04 150.62 119.662 149.98C120.282 149.343 120.607 148.474 120.607 147.544H120.107C120.107 148.358 119.823 149.097 119.303 149.632C118.785 150.164 118.016 150.51 117.013 150.51V151.01ZM120.607 147.544C120.607 146.615 120.286 145.746 119.668 145.108C119.048 144.468 118.145 144.078 117.013 144.078V144.578C118.025 144.578 118.793 144.924 119.309 145.456C119.827 145.99 120.107 146.729 120.107 147.544H120.607ZM117.013 144.078H112.725V144.578H117.013V144.078ZM112.475 144.328V155H112.975V144.328H112.475ZM112.725 155.25H114.053V154.75H112.725V155.25ZM116.853 149.326H114.053V149.826H116.853V149.326ZM114.303 149.576V145.512H113.803V149.576H114.303ZM114.053 145.762H116.853V145.262H114.053V145.762ZM116.853 145.762C117.429 145.762 117.896 145.951 118.218 146.259C118.538 146.566 118.731 147.006 118.731 147.544H119.231C119.231 146.882 118.991 146.306 118.563 145.897C118.137 145.489 117.54 145.262 116.853 145.262V145.762ZM118.731 147.544C118.731 148.082 118.538 148.522 118.218 148.829C117.896 149.137 117.429 149.326 116.853 149.326V149.826C117.54 149.826 118.137 149.599 118.563 149.191C118.991 148.782 119.231 148.206 119.231 147.544H118.731ZM130.017 155V155.25H130.387L130.249 154.907L130.017 155ZM125.729 144.328L125.961 144.235L125.898 144.078H125.729V144.328ZM124.081 144.328V144.078H123.912L123.849 144.234L124.081 144.328ZM119.777 155L119.545 154.906L119.406 155.25H119.777V155ZM121.297 155V155.25H121.467L121.529 155.092L121.297 155ZM122.241 152.616V152.366H122.071L122.008 152.524L122.241 152.616ZM127.553 152.616L127.785 152.524L127.723 152.366H127.553V152.616ZM128.497 155L128.264 155.092L128.327 155.25H128.497V155ZM127.169 151.448V151.698H127.536L127.401 151.356L127.169 151.448ZM122.641 151.448L122.408 151.357L122.274 151.698H122.641V151.448ZM124.897 145.688L125.129 145.596L124.896 145.005L124.664 145.597L124.897 145.688ZM130.249 154.907L125.961 144.235L125.497 144.421L129.785 155.093L130.249 154.907ZM125.729 144.078H124.081V144.578H125.729V144.078ZM123.849 144.234L119.545 154.906L120.009 155.094L124.313 144.422L123.849 144.234ZM119.777 155.25H121.297V154.75H119.777V155.25ZM121.529 155.092L122.473 152.708L122.008 152.524L121.064 154.908L121.529 155.092ZM122.241 152.866H127.553V152.366H122.241V152.866ZM127.32 152.708L128.264 155.092L128.729 154.908L127.785 152.524L127.32 152.708ZM128.497 155.25H130.017V154.75H128.497V155.25ZM127.169 151.198H122.641V151.698H127.169V151.198ZM122.874 151.539L125.13 145.779L124.664 145.597L122.408 151.357L122.874 151.539ZM124.664 145.78L126.936 151.54L127.401 151.356L125.129 145.596L124.664 145.78ZM140.244 155V155.25H140.494V155H140.244ZM140.244 144.328H140.494V144.078H140.244V144.328ZM138.916 144.328V144.078H138.666V144.328H138.916ZM138.916 152.664L138.715 152.812L139.166 153.425V152.664H138.916ZM132.772 144.328L132.973 144.18L132.898 144.078H132.772V144.328ZM131.412 144.328V144.078H131.162V144.328H131.412ZM131.412 155H131.162V155.25H131.412V155ZM132.74 155V155.25H132.99V155H132.74ZM132.74 146.488L132.942 146.34L132.49 145.723V146.488H132.74ZM138.964 155L138.762 155.148L138.837 155.25H138.964V155ZM140.494 155V144.328H139.994V155H140.494ZM140.244 144.078H138.916V144.578H140.244V144.078ZM138.666 144.328V152.664H139.166V144.328H138.666ZM139.117 152.516L132.973 144.18L132.571 144.476L138.715 152.812L139.117 152.516ZM132.772 144.078H131.412V144.578H132.772V144.078ZM131.162 144.328V155H131.662V144.328H131.162ZM131.412 155.25H132.74V154.75H131.412V155.25ZM132.99 155V146.488H132.49V155H132.99ZM132.538 146.636L138.762 155.148L139.166 154.852L132.942 146.34L132.538 146.636ZM138.964 155.25H140.244V154.75H138.964V155.25ZM147.172 155V155.25H147.422V155H147.172ZM147.172 150.488L146.966 150.347L146.922 150.411V150.488H147.172ZM151.364 144.328L151.571 144.469L151.837 144.078H151.364V144.328ZM149.812 144.328V144.078H149.679L149.604 144.189L149.812 144.328ZM146.5 149.288L146.292 149.427L146.5 149.738L146.708 149.427L146.5 149.288ZM143.188 144.328L143.396 144.189L143.322 144.078H143.188V144.328ZM141.636 144.328V144.078H141.163L141.43 144.469L141.636 144.328ZM145.844 150.488H146.094V150.411L146.051 150.347L145.844 150.488ZM145.844 155H145.594V155.25H145.844V155ZM147.422 155V150.488H146.922V155H147.422ZM147.379 150.629L151.571 144.469L151.158 144.187L146.966 150.347L147.379 150.629ZM151.364 144.078H149.812V144.578H151.364V144.078ZM149.604 144.189L146.292 149.149L146.708 149.427L150.02 144.467L149.604 144.189ZM146.708 149.149L143.396 144.189L142.98 144.467L146.292 149.427L146.708 149.149ZM143.188 144.078H141.636V144.578H143.188V144.078ZM141.43 144.469L145.638 150.629L146.051 150.347L141.843 144.187L141.43 144.469ZM145.594 150.488V155H146.094V150.488H145.594ZM145.844 155.25H147.172V154.75H145.844V155.25Z" fill="white"/>
<path d="M112.765 68.6657C112.577 68.6657 112.577 68.4649 112.765 68.6657L111.827 68.0633L111.639 67.8625L89.5036 50.9972C89.5036 50.9972 89.3161 50.9973 89.3161 50.7965L88.9409 50.3949L88.7533 50.1941H88.3781L82 45.3755L94.5686 47.3833C95.1314 47.3833 95.319 47.584 95.8817 47.7848C96.0693 47.7848 96.4445 47.9856 96.4445 47.9856C97.0073 48.1864 97.1949 48.3872 97.5701 48.5879C97.9453 48.7887 98.1328 48.9895 98.508 49.1903C98.6956 49.391 99.0708 49.5918 99.0708 49.7926C99.2584 49.9934 99.446 49.9934 99.6336 50.1941C100.009 50.3949 100.196 50.5957 100.196 50.7965C100.759 51.3988 101.134 52.0011 101.697 52.4027L111.639 67.461L111.827 67.6618L112.765 68.6657Z" fill="#18AAD1"/>
<path d="M112.765 91.9559L111.827 90.3497L111.639 90.1489L82.1875 45.3755L88.5656 50.1942L89.6912 50.9973L111.827 67.8626H112.015L112.765 68.4649C112.765 68.4649 112.952 68.4649 112.952 68.6657L113.89 67.8626L143.717 45.3755L113.703 90.3497L113.515 90.5505L112.765 91.9559Z" fill="#2AD2FF"/>
<path d="M112.765 61.0358L111.827 59.4296L111.639 59.2288L104.323 48.3868L111.639 49.993H111.827L112.765 50.1938L113.703 49.993L120.831 48.186L113.703 59.4296V59.6304L112.765 61.0358Z" fill="#18AAD1"/>
<path d="M143.905 45.1748L134.525 46.5802L130.961 47.1826C128.147 47.5841 125.521 49.1904 123.833 51.8005L113.89 67.0595L113.703 67.2603L112.765 68.6658L113.89 67.4611L114.078 67.2603L112.765 68.6658L138.09 49.3911L143.905 45.1748Z" fill="#18AAD1"/>
<path d="M117.455 13.4521C117.455 22.2862 103.198 26.9041 103.198 36.3406C103.01 38.5492 103.573 40.7577 104.511 42.7655C104.511 42.7655 99.0708 37.1437 99.0708 31.1204C99.0708 25.0971 104.323 16.0622 104.323 16.0622C104.323 20.0777 105.824 21.2824 107.325 21.4831H107.512C109.201 21.4831 110.139 20.0777 110.139 18.0699C110.139 16.0622 108.075 14.0544 108.075 10.0389C108.075 6.22409 112.577 0 112.577 0C115.766 4.01554 117.455 8.63341 117.455 13.4521Z" fill="#2AD2FF"/>
<path d="M113.515 45.5768C109.013 45.5768 105.636 41.762 105.636 37.1441V36.9434C105.636 26.7037 118.955 25.6998 118.955 11.8462C119.331 12.4485 122.895 17.6687 122.895 23.2905C122.895 30.3177 116.704 32.1247 116.704 35.5379C116.704 36.9434 117.267 37.9472 119.143 37.9472C119.331 37.9472 119.518 37.9472 119.706 37.7465C123.27 36.1402 125.709 32.5263 125.896 28.3099C125.896 28.5107 127.772 45.5768 113.515 45.5768Z" fill="#2AD2FF"/>
<path d="M119.331 37.9473C119.518 37.9473 119.706 37.9473 119.893 37.7465C118.018 38.3488 111.077 40.1558 111.077 34.9356C111.077 28.5107 121.394 27.1053 121.394 21.6843C121.394 18.2711 120.644 14.8579 118.955 11.8462C119.331 12.4485 122.895 17.6687 122.895 23.2905C122.895 30.3177 116.704 32.1247 116.704 35.5379C116.892 36.9434 117.642 37.9473 119.331 37.9473Z" fill="#18AAD1"/>
<path d="M113.378 17.0661C113.378 22.0855 107.375 21.684 107 21.4832H107.563C109.251 21.4832 110.189 20.0778 110.189 18.07C110.189 16.0622 108.126 14.0544 108.126 10.0389C108.126 6.2241 112.628 0 112.628 0C111.127 2.61011 110.377 5.42099 110.189 8.23188C110.189 12.8498 113.378 13.2513 113.378 17.0661Z" fill="#18AAD1"/>
<path d="M110.162 105.02L105.824 101.932H111.148L112.923 96.373L114.5 101.932H119.824L115.486 105.02L117.063 110.373L112.725 107.079L108.19 110.373L110.162 105.02Z" fill="#2AD2FF"/>
<path d="M133.338 105.02L129 101.932H134.324L136.099 96.373L137.676 101.932H143L138.662 105.02L140.239 110.373L135.901 107.079L131.366 110.373L133.338 105.02Z" fill="#2AD2FF"/>
<path d="M156.338 105.02L152 101.932H157.324L159.099 96.373L160.676 101.932H166L161.662 105.02L163.239 110.373L158.901 107.079L154.366 110.373L156.338 105.02Z" fill="#2AD2FF"/>
<path d="M86.338 105.02L82 101.932H87.3239L89.0986 96.373L90.6761 101.932H96L91.662 105.02L93.2394 110.373L88.9014 107.079L84.5634 110.373L86.338 105.02Z" fill="#2AD2FF"/>
<path d="M63.338 105.02L59 101.932H64.3239L66.0986 96.373L67.6761 101.932H73L68.662 105.02L70.2394 110.373L65.9014 107.079L61.5634 110.373L63.338 105.02Z" fill="#2AD2FF"/>
<path d="M168.1 160.1H58.7998V178.3H168.1V160.1Z" fill="#0460B5"/>
<path d="M67.2 151H45L49.6 160.1L45 169.2H57.3L57.4 159.3L67.2 151Z" fill="#0460B5"/>
<path d="M159.8 151H181.9L177.3 160.1L181.9 169.2H169.6V159.3L159.8 151Z" fill="#0460B5"/>
<path d="M69.8998 166C70.4998 166.3 70.9998 166.8 71.2998 167.3C71.5998 167.9 71.7998 168.6 71.7998 169.2C71.7998 169.9 71.5998 170.5 71.2998 171.1C70.9998 171.7 70.4998 172.1 69.8998 172.4C69.2998 172.7 68.5998 172.9 67.8998 172.9H64.7998V165.4H67.8998C68.5998 165.5 69.2998 165.6 69.8998 166ZM69.1998 171.4C69.5998 171.2 69.8998 170.9 70.0998 170.5C70.4998 169.7 70.4998 168.7 70.0998 167.9C69.8998 167.5 69.5998 167.2 69.1998 167C68.7998 166.8 68.3998 166.7 67.8998 166.7H66.1998V171.7H67.8998C68.2998 171.7 68.7998 171.6 69.1998 171.4Z" fill="white"/>
<path d="M73 165.5H78.5V166.7H74.5V168.6H78.1V169.8H74.5V171.7H78.7V172.9H73V165.5Z" fill="white"/>
<path d="M83.6998 166.9C83.3998 166.8 82.9998 166.7 82.5998 166.7C82.2998 166.7 81.9998 166.8 81.7998 166.9C81.5998 167 81.4998 167.2 81.4998 167.4C81.4998 167.6 81.5998 167.8 81.6998 167.9C81.7998 168 81.9998 168.2 82.1998 168.2C82.4998 168.3 82.7998 168.4 83.0998 168.5C83.4998 168.6 83.8998 168.8 84.2998 168.9C84.5998 169.1 84.8998 169.3 85.0998 169.6C85.2998 169.9 85.4998 170.3 85.3998 170.8C85.3998 171.2 85.2998 171.7 84.9998 172C84.6998 172.3 84.3998 172.6 83.9998 172.8C83.4998 173 82.9998 173.1 82.4998 173.1C81.8998 173.1 81.2998 173 80.7998 172.8C80.2998 172.6 79.7998 172.3 79.2998 171.9L79.8998 170.7C80.2998 171 80.6998 171.3 81.1998 171.5C81.5998 171.7 82.0998 171.8 82.4998 171.8C82.7998 171.8 83.1998 171.7 83.3998 171.6C83.7998 171.4 83.7998 170.9 83.5998 170.5L83.4998 170.4C83.2998 170.3 83.1998 170.1 82.9998 170.1C82.7998 170 82.4998 169.9 82.0998 169.8C81.6998 169.7 81.2998 169.5 80.8998 169.4C80.5998 169.3 80.2998 169 80.0998 168.8C79.8998 168.5 79.6998 168.1 79.7998 167.7C79.7998 167.3 79.8998 166.9 80.0998 166.6C80.3998 166.3 80.6998 166 81.0998 165.8C81.5998 165.6 82.0998 165.5 82.5998 165.5C83.0998 165.5 83.5998 165.6 83.9998 165.7C84.3998 165.8 84.8998 166 85.2998 166.3L84.6998 167.5C84.4998 167.2 84.0998 167 83.6998 166.9Z" fill="white"/>
<path d="M86.8999 165.5H88.2999V173H86.8999V165.5Z" fill="white"/>
<path d="M95.2 169.2H96.4V172.1C96 172.4 95.5 172.6 95 172.8C94.5 173 94 173.1 93.4 173.1C92.7 173.1 92 172.9 91.4 172.6C90.8 172.3 90.3 171.8 90 171.2C89.6 170.6 89.5 169.9 89.5 169.2C89.5 168.5 89.7 167.8 90 167.3C90.4 166.7 90.9 166.2 91.5 165.9C92.1 165.6 92.8 165.4 93.5 165.4C94 165.4 94.6 165.5 95.1 165.7C95.6 165.9 96.1 166.1 96.4 166.5L95.6 167.6C95.3 167.3 95 167.1 94.6 167C94.2 166.9 93.9 166.8 93.5 166.8C93 166.8 92.6 166.9 92.2 167.1C91 167.8 90.6 169.4 91.3 170.6C91.8 171.4 92.6 171.9 93.5 171.9C93.8 171.9 94 171.9 94.3 171.8C94.6 171.7 94.9 171.6 95.1 171.4L95.2 169.2Z" fill="white"/>
<path d="M103.4 165.5H104.8V173H103.5L99.6002 167.8V173H98.2002V165.5H99.6002L103.5 170.7L103.4 165.5Z" fill="white"/>
<path d="M111.3 173L110 170.8H108V173H106.6V165.5H109.7C110.5 165.4 111.3 165.7 112 166.1C112.5 166.6 112.8 167.3 112.8 168C112.8 168.5 112.7 169 112.4 169.5C112.1 169.9 111.7 170.2 111.3 170.4L113 172.9L111.3 173ZM108 169.5H109.7C110.2 169.5 110.6 169.4 111 169.1C111.3 168.8 111.4 168.5 111.4 168.1C111.4 167.7 111.3 167.3 111 167.1C110.6 166.9 110.2 166.7 109.8 166.8H108V169.5Z" fill="white"/>
<path d="M116.1 171.3C116.5 171.6 117 171.8 117.4 171.8C117.9 171.8 118.4 171.6 118.7 171.3C119 170.9 119.2 170.4 119.2 169.9V165.5H120.6V169.9C120.6 170.5 120.5 171.1 120.2 171.6C119.9 172.1 119.5 172.5 119.1 172.7C118.6 173 118 173.1 117.4 173.1C116.8 173.1 116.2 173 115.6 172.7C115.1 172.5 114.7 172.1 114.5 171.6C114.2 171.1 114.1 170.5 114.1 169.9V165.5H115.5V169.9C115.6 170.4 115.8 170.9 116.1 171.3Z" fill="white"/>
<path d="M126 166.9C125.7 166.8 125.3 166.7 124.9 166.7C124.6 166.7 124.3 166.8 124.1 166.9C123.9 167 123.8 167.2 123.8 167.4C123.8 167.6 123.9 167.8 124 167.9C124.1 168 124.3 168.2 124.5 168.2C124.8 168.3 125.1 168.4 125.4 168.5C125.8 168.6 126.2 168.8 126.6 168.9C126.9 169.1 127.2 169.3 127.4 169.6C127.6 169.9 127.8 170.3 127.7 170.8C127.7 171.2 127.6 171.7 127.3 172C127 172.3 126.7 172.6 126.3 172.8C125.8 173 125.3 173.1 124.8 173.1C124.2 173.1 123.6 173 123.1 172.8C122.6 172.6 122.1 172.3 121.6 171.9L122.2 170.7C122.6 171 123 171.3 123.5 171.5C123.9 171.7 124.4 171.8 124.8 171.8C125.1 171.8 125.5 171.7 125.7 171.6C126.1 171.4 126.1 170.9 125.9 170.5L125.8 170.4C125.6 170.3 125.5 170.1 125.3 170.1C125.1 170 124.8 169.9 124.4 169.8C124 169.7 123.6 169.5 123.2 169.4C122.9 169.3 122.6 169 122.4 168.8C122.2 168.5 122 168.1 122.1 167.7C122.1 167.3 122.2 166.9 122.4 166.6C122.7 166.3 123 166 123.4 165.8C123.9 165.6 124.4 165.5 124.9 165.5C125.4 165.5 125.9 165.6 126.3 165.7C126.7 165.8 127.2 166 127.6 166.3L127 167.5C126.8 167.2 126.4 167 126 166.9Z" fill="white"/>
<path d="M129.2 165.5H130.6V168.7H134.3V165.5H135.7V173H134.3V170H130.6V173H129.2V165.5Z" fill="white"/>
<path d="M138.4 171.7C138.5 171.8 138.6 172 138.6 172.3C138.6 172.5 138.5 172.7 138.4 172.9C138.3 173 138.1 173.1 137.9 173.1C137.7 173.1 137.5 173 137.4 172.9C137.3 172.7 137.2 172.5 137.2 172.3C137.2 172.1 137.3 171.9 137.4 171.7C137.5 171.6 137.7 171.5 137.9 171.5C138.1 171.5 138.3 171.6 138.4 171.7Z" fill="white"/>
<path d="M142.4 168.4C142 168.4 141.6 168.6 141.3 168.9C141 169.2 140.9 169.7 140.9 170.1C140.9 170.6 141 171 141.3 171.3C141.6 171.6 142 171.8 142.4 171.8C143 171.8 143.6 171.6 143.9 171.1L144.8 171.8C144.5 172.2 144.2 172.5 143.8 172.7C143.3 172.9 142.8 173 142.3 173C141.8 173 141.3 172.9 140.8 172.6C140.4 172.4 140 172 139.8 171.6C139.3 170.7 139.3 169.5 139.8 168.6C140 168.2 140.4 167.8 140.8 167.6C141.3 167.4 141.8 167.2 142.3 167.2C142.8 167.2 143.3 167.3 143.7 167.5C144.1 167.7 144.4 167.9 144.7 168.3L143.9 169.1C143.6 168.7 143 168.4 142.4 168.4Z" fill="white"/>
<path d="M149.9 167.6C150.3 167.8 150.7 168.2 151 168.6C151.3 169.1 151.4 169.6 151.4 170.1C151.4 170.6 151.3 171.2 151 171.6C150.7 172 150.4 172.4 149.9 172.6C149.4 172.8 148.9 173 148.3 173C147.7 173 147.2 172.9 146.7 172.6C146.3 172.4 145.9 172 145.6 171.6C145.3 171.1 145.2 170.6 145.2 170.1C145.2 169.6 145.3 169 145.6 168.6C145.9 168.2 146.2 167.8 146.7 167.6C147.2 167.3 147.7 167.2 148.3 167.2C148.9 167.2 149.4 167.3 149.9 167.6ZM147.2 168.9C146.6 169.6 146.6 170.7 147.2 171.4C147.5 171.7 147.9 171.9 148.4 171.9C148.8 171.9 149.3 171.7 149.6 171.4C150.2 170.7 150.2 169.6 149.6 168.9C149.3 168.6 148.9 168.4 148.4 168.4C147.9 168.4 147.5 168.5 147.2 168.9Z" fill="white"/>
<path d="M161.6 167.8C162 168.2 162.2 168.8 162.2 169.4V173H160.8V169.8C160.8 169.4 160.7 169.1 160.5 168.8C160.3 168.6 159.9 168.4 159.6 168.4C159.2 168.4 158.8 168.6 158.5 168.9C158.2 169.2 158.1 169.6 158.1 170.1V172.9H156.7V169.8C156.7 169.4 156.6 169.1 156.4 168.8C156.2 168.6 155.8 168.4 155.5 168.4C155.1 168.4 154.7 168.6 154.4 168.9C154.1 169.2 154 169.7 154.1 170.1V172.9H152.7V167.2H154.1V168.3C154.8 167.2 156.3 166.9 157.4 167.5C157.7 167.7 158 168.1 158.1 168.5C158.4 167.6 159.3 167.1 160.2 167.1C160.7 167.1 161.2 167.4 161.6 167.8Z" fill="white"/>
<path d="M104.888 193V192.112H100.964C103.196 190.348 104.852 188.86 104.852 187.228C104.852 185.632 103.496 184.876 102.164 184.876C101.036 184.876 99.9921 185.32 99.3801 186.136L99.9921 186.772C100.46 186.172 101.204 185.764 102.164 185.764C102.992 185.764 103.844 186.196 103.844 187.228C103.844 188.608 102.272 189.94 99.3921 192.196V193H104.888ZM109.471 193.144C111.655 193.144 112.531 190.948 112.531 189.004C112.531 187.048 111.655 184.876 109.471 184.876C107.275 184.876 106.411 187.048 106.411 189.004C106.411 190.948 107.275 193.144 109.471 193.144ZM109.471 192.256C107.947 192.256 107.431 190.6 107.431 189.004C107.431 187.408 107.947 185.764 109.471 185.764C110.995 185.764 111.511 187.408 111.511 189.004C111.511 190.6 110.995 192.256 109.471 192.256ZM119.29 193V192.112H115.366C117.598 190.348 119.254 188.86 119.254 187.228C119.254 185.632 117.898 184.876 116.566 184.876C115.438 184.876 114.394 185.32 113.782 186.136L114.394 186.772C114.862 186.172 115.606 185.764 116.566 185.764C117.394 185.764 118.246 186.196 118.246 187.228C118.246 188.608 116.674 189.94 113.794 192.196V193H119.29ZM126.345 193V192.112H122.421C124.653 190.348 126.309 188.86 126.309 187.228C126.309 185.632 124.953 184.876 123.621 184.876C122.493 184.876 121.449 185.32 120.837 186.136L121.449 186.772C121.917 186.172 122.661 185.764 123.621 185.764C124.449 185.764 125.301 186.196 125.301 187.228C125.301 188.608 123.729 189.94 120.849 192.196V193H126.345Z" fill="white"/>
<path d="M104.888 193V193.25H105.138V193H104.888ZM104.888 192.112H105.138V191.862H104.888V192.112ZM100.964 192.112L100.809 191.916L100.245 192.362H100.964V192.112ZM99.3801 186.136L99.1801 185.986L99.0526 186.156L99.2 186.309L99.3801 186.136ZM99.9921 186.772L99.812 186.945L100.012 187.153L100.189 186.926L99.9921 186.772ZM99.3921 192.196L99.238 191.999L99.1421 192.074V192.196H99.3921ZM99.3921 193H99.1421V193.25H99.3921V193ZM105.138 193V192.112H104.638V193H105.138ZM104.888 191.862H100.964V192.362H104.888V191.862ZM101.119 192.308C102.235 191.427 103.224 190.601 103.934 189.785C104.643 188.969 105.102 188.132 105.102 187.228H104.602C104.602 187.956 104.233 188.679 103.557 189.456C102.881 190.233 101.926 191.033 100.809 191.916L101.119 192.308ZM105.102 187.228C105.102 186.35 104.725 185.69 104.16 185.255C103.602 184.827 102.874 184.626 102.164 184.626V185.126C102.787 185.126 103.402 185.303 103.855 185.652C104.301 185.994 104.602 186.51 104.602 187.228H105.102ZM102.164 184.626C100.975 184.626 99.8489 185.094 99.1801 185.986L99.5801 186.286C100.135 185.546 101.097 185.126 102.164 185.126V184.626ZM99.2 186.309L99.812 186.945L100.172 186.599L99.5603 185.963L99.2 186.309ZM100.189 186.926C100.609 186.387 101.28 186.014 102.164 186.014V185.514C101.128 185.514 100.311 185.957 99.795 186.618L100.189 186.926ZM102.164 186.014C102.539 186.014 102.902 186.113 103.165 186.309C103.418 186.499 103.594 186.791 103.594 187.228H104.094C104.094 186.633 103.844 186.193 103.464 185.909C103.094 185.631 102.617 185.514 102.164 185.514V186.014ZM103.594 187.228C103.594 187.818 103.259 188.435 102.517 189.211C101.779 189.983 100.681 190.869 99.238 191.999L99.5463 192.393C100.983 191.267 102.111 190.359 102.879 189.556C103.643 188.757 104.094 188.018 104.094 187.228H103.594ZM99.1421 192.196V193H99.6421V192.196H99.1421ZM99.3921 193.25H104.888V192.75H99.3921V193.25ZM109.471 193.394C110.663 193.394 111.502 192.788 112.032 191.935C112.556 191.092 112.781 190.008 112.781 189.004H112.281C112.281 189.944 112.068 190.93 111.607 191.671C111.153 192.402 110.462 192.894 109.471 192.894V193.394ZM112.781 189.004C112.781 187.994 112.556 186.912 112.032 186.074C111.502 185.225 110.662 184.626 109.471 184.626V185.126C110.464 185.126 111.154 185.613 111.608 186.339C112.068 187.076 112.281 188.058 112.281 189.004H112.781ZM109.471 184.626C108.274 184.626 107.434 185.225 106.905 186.074C106.383 186.913 106.161 187.995 106.161 189.004H106.661C106.661 188.057 106.871 187.075 107.33 186.339C107.781 185.613 108.472 185.126 109.471 185.126V184.626ZM106.161 189.004C106.161 190.007 106.383 191.092 106.905 191.935C107.433 192.788 108.273 193.394 109.471 193.394V192.894C108.473 192.894 107.782 192.402 107.33 191.671C106.871 190.93 106.661 189.945 106.661 189.004H106.161ZM109.471 192.006C108.823 192.006 108.388 191.664 108.101 191.113C107.808 190.549 107.681 189.782 107.681 189.004H107.181C107.181 189.822 107.312 190.681 107.658 191.344C108.01 192.02 108.595 192.506 109.471 192.506V192.006ZM107.681 189.004C107.681 188.226 107.808 187.462 108.101 186.901C108.387 186.354 108.822 186.014 109.471 186.014V185.514C108.596 185.514 108.01 185.996 107.658 186.67C107.312 187.33 107.181 188.186 107.181 189.004H107.681ZM109.471 186.014C110.12 186.014 110.554 186.354 110.841 186.901C111.134 187.462 111.261 188.226 111.261 189.004H111.761C111.761 188.186 111.63 187.33 111.284 186.67C110.931 185.996 110.346 185.514 109.471 185.514V186.014ZM111.261 189.004C111.261 189.782 111.134 190.549 110.841 191.113C110.554 191.664 110.119 192.006 109.471 192.006V192.506C110.347 192.506 110.932 192.02 111.284 191.344C111.63 190.681 111.761 189.822 111.761 189.004H111.261ZM119.29 193V193.25H119.54V193H119.29ZM119.29 192.112H119.54V191.862H119.29V192.112ZM115.366 192.112L115.211 191.916L114.647 192.362H115.366V192.112ZM113.782 186.136L113.582 185.986L113.455 186.156L113.602 186.309L113.782 186.136ZM114.394 186.772L114.214 186.945L114.414 187.153L114.592 186.926L114.394 186.772ZM113.794 192.196L113.64 191.999L113.544 192.074V192.196H113.794ZM113.794 193H113.544V193.25H113.794V193ZM119.54 193V192.112H119.04V193H119.54ZM119.29 191.862H115.366V192.362H119.29V191.862ZM115.521 192.308C116.637 191.427 117.626 190.601 118.336 189.785C119.045 188.969 119.504 188.132 119.504 187.228H119.004C119.004 187.956 118.636 188.679 117.959 189.456C117.283 190.233 116.328 191.033 115.211 191.916L115.521 192.308ZM119.504 187.228C119.504 186.35 119.127 185.69 118.562 185.255C118.005 184.827 117.276 184.626 116.566 184.626V185.126C117.189 185.126 117.804 185.303 118.258 185.652C118.704 185.994 119.004 186.51 119.004 187.228H119.504ZM116.566 184.626C115.377 184.626 114.251 185.094 113.582 185.986L113.982 186.286C114.538 185.546 115.5 185.126 116.566 185.126V184.626ZM113.602 186.309L114.214 186.945L114.575 186.599L113.963 185.963L113.602 186.309ZM114.592 186.926C115.012 186.387 115.683 186.014 116.566 186.014V185.514C115.53 185.514 114.713 185.957 114.197 186.618L114.592 186.926ZM116.566 186.014C116.942 186.014 117.305 186.113 117.567 186.309C117.82 186.499 117.996 186.791 117.996 187.228H118.496C118.496 186.633 118.246 186.193 117.867 185.909C117.496 185.631 117.019 185.514 116.566 185.514V186.014ZM117.996 187.228C117.996 187.818 117.661 188.435 116.92 189.211C116.181 189.983 115.083 190.869 113.64 191.999L113.949 192.393C115.385 191.267 116.513 190.359 117.281 189.556C118.046 188.757 118.496 188.018 118.496 187.228H117.996ZM113.544 192.196V193H114.044V192.196H113.544ZM113.794 193.25H119.29V192.75H113.794V193.25ZM126.345 193V193.25H126.595V193H126.345ZM126.345 192.112H126.595V191.862H126.345V192.112ZM122.421 192.112L122.266 191.916L121.702 192.362H122.421V192.112ZM120.837 186.136L120.637 185.986L120.51 186.156L120.657 186.309L120.837 186.136ZM121.449 186.772L121.269 186.945L121.469 187.153L121.646 186.926L121.449 186.772ZM120.849 192.196L120.695 191.999L120.599 192.074V192.196H120.849ZM120.849 193H120.599V193.25H120.849V193ZM126.595 193V192.112H126.095V193H126.595ZM126.345 191.862H122.421V192.362H126.345V191.862ZM122.576 192.308C123.692 191.427 124.681 190.601 125.391 189.785C126.1 188.969 126.559 188.132 126.559 187.228H126.059C126.059 187.956 125.69 188.679 125.014 189.456C124.338 190.233 123.383 191.033 122.266 191.916L122.576 192.308ZM126.559 187.228C126.559 186.35 126.182 185.69 125.617 185.255C125.059 184.827 124.331 184.626 123.621 184.626V185.126C124.244 185.126 124.859 185.303 125.312 185.652C125.758 185.994 126.059 186.51 126.059 187.228H126.559ZM123.621 184.626C122.432 184.626 121.306 185.094 120.637 185.986L121.037 186.286C121.592 185.546 122.554 185.126 123.621 185.126V184.626ZM120.657 186.309L121.269 186.945L121.629 186.599L121.017 185.963L120.657 186.309ZM121.646 186.926C122.066 186.387 122.737 186.014 123.621 186.014V185.514C122.585 185.514 121.768 185.957 121.252 186.618L121.646 186.926ZM123.621 186.014C123.996 186.014 124.359 186.113 124.622 186.309C124.875 186.499 125.051 186.791 125.051 187.228H125.551C125.551 186.633 125.301 186.193 124.922 185.909C124.551 185.631 124.074 185.514 123.621 185.514V186.014ZM125.051 187.228C125.051 187.818 124.716 188.435 123.974 189.211C123.236 189.983 122.138 190.869 120.695 191.999L121.003 192.393C122.44 191.267 123.568 190.359 124.336 189.556C125.1 188.757 125.551 188.018 125.551 187.228H125.051ZM120.599 192.196V193H121.099V192.196H120.599ZM120.849 193.25H126.345V192.75H120.849V193.25Z" fill="white"/>
<path d="M77 189.5H92" stroke="white"/>
<path d="M134 189.5H149" stroke="white"/>
</svg>
